<svg width="107" height="42" viewBox="0 0 107 42" fill="none" xmlns="http://www.w3.org/2000/svg">
<path d="M14.1816 1.65869C14.1504 1.76286 14.1087 1.83838 14.0566 1.88525C14.0098 1.93213 13.9577 1.9764 13.9004 2.01807C13.8431 2.05973 13.7858 2.11442 13.7285 2.18213C13.6764 2.24984 13.6322 2.354 13.5957 2.49463C13.5072 2.7915 13.4134 3.15348 13.3145 3.58057C13.2207 4.00244 13.127 4.45557 13.0332 4.93994C12.9395 5.42432 12.8483 5.91911 12.7598 6.42432C12.6764 6.92432 12.6035 7.40088 12.541 7.854C12.4785 8.30192 12.4264 8.70557 12.3848 9.06494C12.3483 9.41911 12.3301 9.69255 12.3301 9.88525C12.3301 10.0207 12.3431 10.1587 12.3691 10.2993C12.4004 10.4347 12.4342 10.5728 12.4707 10.7134C12.5072 10.854 12.5384 10.9998 12.5645 11.1509C12.5957 11.3019 12.6113 11.4582 12.6113 11.6196C12.6113 11.7655 12.5957 11.9165 12.5645 12.0728C12.5384 12.2238 12.4863 12.3853 12.4082 12.5571C12.3926 12.5884 12.3587 12.6144 12.3066 12.6353C12.2598 12.6561 12.1999 12.6717 12.127 12.6821C12.054 12.6925 11.9759 12.7004 11.8926 12.7056C11.8145 12.7108 11.7363 12.7134 11.6582 12.7134C11.3613 12.7134 11.153 12.591 11.0332 12.3462C10.9134 12.1066 10.8535 11.7759 10.8535 11.354C10.8535 10.88 10.8874 10.3696 10.9551 9.82275C11.0228 9.27588 11.1087 8.70036 11.2129 8.09619C11.3171 7.48682 11.4316 6.85661 11.5566 6.20557C11.6868 5.54932 11.8118 4.87744 11.9316 4.18994C11.7129 4.46077 11.4811 4.74202 11.2363 5.03369C10.9915 5.32536 10.7441 5.61182 10.4941 5.89307C10.2441 6.17432 9.99935 6.44515 9.75977 6.70557C9.52539 6.96598 9.30664 7.20296 9.10352 7.4165C8.90039 7.63005 8.7181 7.81234 8.55664 7.96338C8.40039 8.11442 8.2806 8.22119 8.19727 8.28369C8.03581 8.4139 7.90039 8.54932 7.79102 8.68994C7.68164 8.83057 7.58789 8.97119 7.50977 9.11182C7.43164 9.24723 7.36133 9.37744 7.29883 9.50244C7.23633 9.62744 7.17122 9.73682 7.10352 9.83057C7.03581 9.92432 6.95768 9.99984 6.86914 10.0571C6.78581 10.1144 6.67904 10.1431 6.54883 10.1431C6.51237 10.1431 6.45247 10.1431 6.36914 10.1431C6.28581 10.1379 6.19727 10.13 6.10352 10.1196C6.01497 10.104 5.93424 10.0832 5.86133 10.0571C5.78841 10.0259 5.74674 9.98421 5.73633 9.93213C5.67383 9.63005 5.58268 9.28109 5.46289 8.88525C5.34831 8.48942 5.21549 8.07796 5.06445 7.65088C4.91862 7.21859 4.76497 6.7863 4.60352 6.354C4.44727 5.92171 4.29883 5.52067 4.1582 5.15088C4.01758 4.77588 3.88997 4.44775 3.77539 4.1665C3.66602 3.88525 3.58789 3.67952 3.54102 3.54932C3.37956 4.14827 3.21549 4.7863 3.04883 5.46338C2.88216 6.14046 2.73112 6.80973 2.5957 7.47119C2.46029 8.13265 2.34831 8.76546 2.25977 9.36963C2.17643 9.96859 2.13477 10.4946 2.13477 10.9478V11.104C2.13477 11.2082 2.10612 11.341 2.04883 11.5024C1.99674 11.6639 1.93164 11.8228 1.85352 11.979C1.77539 12.13 1.69466 12.2603 1.61133 12.3696C1.5332 12.4842 1.4681 12.5415 1.41602 12.5415C1.3431 12.5467 1.25716 12.5389 1.1582 12.5181C1.06445 12.5024 0.968099 12.4738 0.869141 12.4321C0.822266 12.4113 0.770182 12.3722 0.712891 12.3149C0.655599 12.2576 0.598307 12.1899 0.541016 12.1118C0.488932 12.0337 0.444661 11.9504 0.408203 11.8618C0.371745 11.7733 0.353516 11.6873 0.353516 11.604C0.353516 11.5571 0.361328 11.5129 0.376953 11.4712C0.54362 11.0493 0.689453 10.5728 0.814453 10.0415C0.939453 9.51025 1.05924 8.95296 1.17383 8.36963C1.29362 7.78109 1.41862 7.18213 1.54883 6.57275C1.68424 5.96338 1.8431 5.37223 2.02539 4.79932C2.10872 4.55973 2.18424 4.30713 2.25195 4.0415C2.31966 3.77588 2.37956 3.52067 2.43164 3.27588C2.48372 3.03109 2.52799 2.80452 2.56445 2.59619C2.60091 2.38265 2.62956 2.21077 2.65039 2.08057C2.66602 1.99723 2.68424 1.88525 2.70508 1.74463C2.72591 1.604 2.75456 1.46598 2.79102 1.33057C2.83268 1.19515 2.88737 1.07796 2.95508 0.979004C3.02799 0.880046 3.12435 0.830566 3.24414 0.830566C3.31706 0.830566 3.41862 0.854004 3.54883 0.900879C3.67904 0.947754 3.81185 1.00765 3.94727 1.08057C4.08268 1.14827 4.20508 1.2238 4.31445 1.30713C4.42383 1.39046 4.49674 1.47119 4.5332 1.54932C4.55924 1.6014 4.58789 1.67432 4.61914 1.76807C4.6556 1.86182 4.68945 1.96338 4.7207 2.07275C4.75195 2.17692 4.77799 2.28369 4.79883 2.39307C4.82487 2.49723 4.83789 2.58838 4.83789 2.6665C4.83789 2.71859 4.86393 2.8488 4.91602 3.05713C4.9681 3.26025 5.03841 3.51286 5.12695 3.81494C5.21549 4.11182 5.31966 4.43994 5.43945 4.79932C5.55924 5.15869 5.68424 5.52067 5.81445 5.88525C5.94466 6.24984 6.07747 6.6014 6.21289 6.93994C6.35352 7.27848 6.48893 7.57275 6.61914 7.82275C6.66081 7.90088 6.7181 7.93994 6.79102 7.93994C6.82747 7.93994 6.86133 7.93213 6.89258 7.9165C6.92904 7.89567 6.95508 7.87484 6.9707 7.854C7.36133 7.43213 7.7806 7.00244 8.22852 6.56494C8.68164 6.12223 9.12956 5.67171 9.57227 5.21338C10.015 4.74984 10.4395 4.27327 10.8457 3.78369C11.252 3.29411 11.6087 2.78369 11.916 2.25244C11.9837 2.11702 12.041 1.95817 12.0879 1.77588C12.14 1.58838 12.2259 1.39046 12.3457 1.18213C12.5072 0.916504 12.6634 0.713379 12.8145 0.572754C12.9655 0.426921 13.1035 0.354004 13.2285 0.354004C13.2806 0.354004 13.3613 0.393066 13.4707 0.471191C13.5801 0.544108 13.6895 0.637858 13.7988 0.752441C13.9082 0.867025 14.002 0.992025 14.0801 1.12744C14.1634 1.26286 14.2051 1.39307 14.2051 1.51807C14.2051 1.56494 14.1973 1.61182 14.1816 1.65869ZM27.9473 9.30713C27.9473 9.43213 27.9186 9.55713 27.8613 9.68213C27.804 9.80713 27.7337 9.9139 27.6504 10.0024C26.8743 10.841 26.1686 11.4764 25.5332 11.9087C24.8978 12.3358 24.3223 12.5493 23.8066 12.5493C23.5879 12.5493 23.3822 12.5103 23.1895 12.4321C23.002 12.354 22.8379 12.2316 22.6973 12.0649C22.5566 11.8983 22.4473 11.6821 22.3691 11.4165C22.291 11.1509 22.252 10.8332 22.252 10.4634C22.252 10.3019 22.2624 10.117 22.2832 9.90869C22.304 9.70036 22.3275 9.48421 22.3535 9.26025C22.3848 9.0363 22.4186 8.81494 22.4551 8.59619C22.4915 8.37223 22.5228 8.16911 22.5488 7.98682C22.5801 7.79932 22.6061 7.64046 22.627 7.51025C22.6478 7.37484 22.6582 7.28369 22.6582 7.23682C22.6582 7.18994 22.6478 7.1613 22.627 7.15088C22.6113 7.14046 22.5827 7.13525 22.541 7.13525C22.5202 7.13525 22.4811 7.14827 22.4238 7.17432C22.3717 7.19515 22.3066 7.22119 22.2285 7.25244C22.1556 7.28369 22.0749 7.31755 21.9863 7.354C21.8978 7.39046 21.8118 7.42171 21.7285 7.44775C21.6243 7.479 21.5124 7.51025 21.3926 7.5415C21.2728 7.57275 21.1504 7.6014 21.0254 7.62744C20.9056 7.64827 20.791 7.66911 20.6816 7.68994C20.5775 7.70557 20.4889 7.71598 20.416 7.72119C20.5931 7.8514 20.7415 8.04411 20.8613 8.29932C20.9863 8.54932 21.0488 8.82536 21.0488 9.12744C21.0488 9.46077 20.9993 9.78109 20.9004 10.0884C20.8066 10.3957 20.6764 10.6847 20.5098 10.9556C20.3431 11.2264 20.1452 11.4738 19.916 11.6978C19.6921 11.9217 19.4525 12.1118 19.1973 12.2681C18.9421 12.4295 18.6764 12.5545 18.4004 12.6431C18.1243 12.7316 17.8535 12.7759 17.5879 12.7759C17.4004 12.7759 17.2155 12.729 17.0332 12.6353C16.8561 12.5415 16.6999 12.4035 16.5645 12.2212C16.429 12.0337 16.3197 11.8045 16.2363 11.5337C16.153 11.2576 16.1113 10.9425 16.1113 10.5884C16.1113 10.2759 16.1374 9.95036 16.1895 9.61182C16.2467 9.27327 16.3197 8.90869 16.4082 8.51807C16.4967 8.12223 16.6009 7.68734 16.7207 7.21338C16.8405 6.73942 16.9681 6.20817 17.1035 5.61963C17.1139 5.56234 17.1296 5.48421 17.1504 5.38525C17.1764 5.2863 17.2025 5.18473 17.2285 5.08057C17.2546 4.97119 17.2806 4.86702 17.3066 4.76807C17.3379 4.6639 17.3639 4.58317 17.3848 4.52588C17.4056 4.46338 17.4473 4.40088 17.5098 4.33838C17.5723 4.27588 17.64 4.22119 17.7129 4.17432C17.7858 4.12223 17.8587 4.08057 17.9316 4.04932C18.0098 4.01807 18.0749 4.00244 18.127 4.00244C18.1738 4.00244 18.2259 4.01807 18.2832 4.04932C18.3457 4.08057 18.403 4.12223 18.4551 4.17432C18.5072 4.2264 18.5514 4.2863 18.5879 4.354C18.6243 4.42171 18.6426 4.49202 18.6426 4.56494C18.6426 4.70557 18.6061 4.88525 18.5332 5.104C18.4603 5.32275 18.3796 5.54932 18.291 5.78369C18.2077 6.01286 18.1296 6.23421 18.0566 6.44775C17.9889 6.65609 17.9551 6.82015 17.9551 6.93994C17.9551 6.97119 17.9603 7.00244 17.9707 7.03369C17.9811 7.05973 17.9967 7.07275 18.0176 7.07275C18.2363 7.07275 18.5098 7.06234 18.8379 7.0415C19.166 7.02067 19.4967 6.99202 19.8301 6.95557C20.1686 6.91911 20.4863 6.87744 20.7832 6.83057C21.0853 6.78369 21.3223 6.73161 21.4941 6.67432C21.8223 6.57015 22.1087 6.43994 22.3535 6.28369C22.6035 6.12744 22.7884 5.95036 22.9082 5.75244C23.0176 5.57015 23.1061 5.37484 23.1738 5.1665C23.2415 4.95296 23.2988 4.75505 23.3457 4.57275C23.3561 4.5363 23.377 4.49723 23.4082 4.45557C23.4447 4.4139 23.4889 4.37484 23.541 4.33838C23.5931 4.30192 23.6504 4.27067 23.7129 4.24463C23.7806 4.21859 23.8509 4.20557 23.9238 4.20557C23.9759 4.20557 24.041 4.21598 24.1191 4.23682C24.1973 4.25765 24.2702 4.2863 24.3379 4.32275C24.4056 4.35921 24.4629 4.40348 24.5098 4.45557C24.5618 4.50244 24.5879 4.55192 24.5879 4.604C24.5879 4.68213 24.5723 4.77327 24.541 4.87744C24.515 4.9764 24.4759 5.09619 24.4238 5.23682C24.377 5.37744 24.3223 5.5415 24.2598 5.729C24.1973 5.9165 24.1348 6.13525 24.0723 6.38525C23.9993 6.6665 23.9238 6.98682 23.8457 7.34619C23.7676 7.70036 23.6973 8.05452 23.6348 8.40869C23.5723 8.76286 23.5202 9.0988 23.4785 9.4165C23.4421 9.729 23.4238 9.98421 23.4238 10.1821C23.4238 10.6144 23.4967 10.9217 23.6426 11.104C23.7936 11.2863 23.9863 11.3774 24.2207 11.3774C24.6009 11.3774 25.0332 11.203 25.5176 10.854C26.0072 10.4998 26.5671 10.0129 27.1973 9.39307C27.2962 9.29411 27.39 9.20817 27.4785 9.13525C27.5671 9.06234 27.6556 9.02588 27.7441 9.02588C27.7806 9.02588 27.8197 9.05452 27.8613 9.11182C27.9082 9.1639 27.9368 9.229 27.9473 9.30713ZM17.7598 7.76025C17.7285 7.88005 17.6947 8.02327 17.6582 8.18994C17.6217 8.3514 17.5827 8.52588 17.541 8.71338C17.5046 8.89567 17.4681 9.08577 17.4316 9.28369C17.3952 9.4764 17.3613 9.6613 17.3301 9.83838C17.304 10.0155 17.2806 10.1795 17.2598 10.3306C17.2441 10.4764 17.2363 10.5988 17.2363 10.6978C17.2363 11.0519 17.2936 11.3201 17.4082 11.5024C17.528 11.6847 17.6947 11.7759 17.9082 11.7759C18.1478 11.7759 18.3926 11.7082 18.6426 11.5728C18.8978 11.4321 19.1296 11.2524 19.3379 11.0337C19.5462 10.8149 19.7155 10.5675 19.8457 10.2915C19.9759 10.0155 20.041 9.73942 20.041 9.46338C20.041 9.19775 20.0098 8.96598 19.9473 8.76807C19.8848 8.57015 19.804 8.40609 19.7051 8.27588C19.6061 8.14046 19.4941 8.0389 19.3691 7.97119C19.2493 7.90348 19.1296 7.86963 19.0098 7.86963C18.89 7.86963 18.7676 7.88005 18.6426 7.90088C18.5176 7.9165 18.4108 7.92692 18.3223 7.93213C18.2493 7.93213 18.1921 7.91911 18.1504 7.89307C18.1087 7.86182 18.0749 7.82796 18.0488 7.7915C18.0228 7.75505 17.9993 7.7238 17.9785 7.69775C17.9577 7.6665 17.9342 7.65088 17.9082 7.65088C17.8665 7.65609 17.8327 7.6665 17.8066 7.68213C17.7858 7.69255 17.7702 7.71859 17.7598 7.76025ZM46.5879 10.4087C46.2337 10.6743 45.8431 10.9347 45.416 11.1899C44.9889 11.4399 44.5384 11.6795 44.0645 11.9087C43.5905 12.1326 43.0983 12.3384 42.5879 12.5259C42.0827 12.7134 41.5723 12.8748 41.0566 13.0103C40.5462 13.1509 40.0384 13.2576 39.5332 13.3306C39.0332 13.4087 38.5514 13.4478 38.0879 13.4478C37.6452 13.4478 37.2572 13.4009 36.9238 13.3071C36.5905 13.2186 36.3014 13.0962 36.0566 12.9399C35.8118 12.7837 35.6061 12.6014 35.4395 12.3931C35.278 12.1847 35.1478 11.9608 35.0488 11.7212C34.9499 11.4816 34.8796 11.2342 34.8379 10.979C34.7962 10.7238 34.7754 10.4738 34.7754 10.229C34.7754 9.87484 34.8457 9.46859 34.9863 9.01025C35.1322 8.54671 35.3301 8.05713 35.5801 7.5415C35.8301 7.02588 36.127 6.49984 36.4707 5.96338C36.8145 5.42171 37.1868 4.89827 37.5879 4.39307C37.9889 3.88265 38.4108 3.40348 38.8535 2.95557C39.2962 2.50244 39.7415 2.10661 40.1895 1.76807C40.6374 1.42952 41.0801 1.1639 41.5176 0.971191C41.9603 0.773275 42.3796 0.674316 42.7754 0.674316C43.2546 0.674316 43.6478 0.75765 43.9551 0.924316C44.2676 1.08577 44.5124 1.28369 44.6895 1.51807C44.8665 1.74723 44.9889 1.98682 45.0566 2.23682C45.1243 2.48682 45.1582 2.70036 45.1582 2.87744C45.1582 2.91911 45.1478 2.99984 45.127 3.11963C45.1113 3.23942 45.0827 3.38005 45.041 3.5415C44.9993 3.69775 44.9447 3.86442 44.877 4.0415C44.8145 4.21338 44.7363 4.37223 44.6426 4.51807C44.554 4.6639 44.4473 4.78369 44.3223 4.87744C44.2025 4.97119 44.0671 5.01807 43.916 5.01807C43.8796 5.01807 43.8301 4.99723 43.7676 4.95557C43.7051 4.9139 43.6426 4.86182 43.5801 4.79932C43.5176 4.73161 43.4629 4.65869 43.416 4.58057C43.3743 4.49723 43.3535 4.4165 43.3535 4.33838C43.3535 4.28109 43.377 4.21338 43.4238 4.13525C43.4707 4.05192 43.5202 3.95036 43.5723 3.83057C43.6296 3.70557 43.6816 3.55973 43.7285 3.39307C43.7754 3.22119 43.7988 3.02067 43.7988 2.7915C43.7988 2.58317 43.6999 2.4165 43.502 2.2915C43.3092 2.1613 43.0514 2.09619 42.7285 2.09619C42.4577 2.09619 42.1556 2.17692 41.8223 2.33838C41.4941 2.49984 41.1504 2.72119 40.791 3.00244C40.4368 3.27848 40.0749 3.604 39.7051 3.979C39.3353 4.354 38.9785 4.75765 38.6348 5.18994C38.2962 5.61702 37.9759 6.05973 37.6738 6.51807C37.3717 6.9764 37.1087 7.42952 36.8848 7.87744C36.666 8.32015 36.4915 8.74723 36.3613 9.15869C36.2311 9.57015 36.166 9.94255 36.166 10.2759C36.166 10.7238 36.2493 11.0728 36.416 11.3228C36.5879 11.5728 36.8014 11.7603 37.0566 11.8853C37.3118 12.005 37.5879 12.078 37.8848 12.104C38.1816 12.13 38.4577 12.1431 38.7129 12.1431C39.2441 12.1431 39.7832 12.0858 40.3301 11.9712C40.877 11.8566 41.4056 11.7134 41.916 11.5415C42.4264 11.3696 42.903 11.1847 43.3457 10.9868C43.7936 10.7837 44.1842 10.591 44.5176 10.4087C44.8353 10.2368 45.0983 10.078 45.3066 9.93213C45.5202 9.7863 45.7051 9.6613 45.8613 9.55713C46.0228 9.45296 46.1738 9.37223 46.3145 9.31494C46.4603 9.25765 46.6243 9.229 46.8066 9.229C46.8535 9.229 46.8874 9.25505 46.9082 9.30713C46.929 9.354 46.9395 9.4165 46.9395 9.49463C46.9395 9.56755 46.929 9.65088 46.9082 9.74463C46.8926 9.83317 46.8691 9.92171 46.8379 10.0103C46.8066 10.0936 46.7702 10.1717 46.7285 10.2446C46.6868 10.3175 46.64 10.3722 46.5879 10.4087ZM58.2129 6.72119C58.2129 6.87223 58.1686 7.02327 58.0801 7.17432C57.9967 7.32536 57.8874 7.46598 57.752 7.59619C57.627 7.71598 57.4759 7.83317 57.2988 7.94775C57.1217 8.06234 56.9264 8.1639 56.7129 8.25244C56.5046 8.33577 56.2832 8.40348 56.0488 8.45557C55.8197 8.50765 55.5853 8.53369 55.3457 8.53369C55.0697 8.53369 54.8275 8.50765 54.6191 8.45557C54.4108 8.39827 54.2337 8.33838 54.0879 8.27588C53.9421 8.21338 53.8249 8.15609 53.7363 8.104C53.653 8.04671 53.5957 8.01807 53.5645 8.01807C53.4967 8.01807 53.4525 8.0363 53.4316 8.07275C53.4108 8.10921 53.3978 8.14046 53.3926 8.1665C53.377 8.2915 53.3613 8.43213 53.3457 8.58838C53.3353 8.73942 53.3066 8.90348 53.2598 9.08057C53.2181 9.25244 53.153 9.43994 53.0645 9.64307C52.9759 9.84098 52.8457 10.0493 52.6738 10.2681C52.554 10.4295 52.403 10.591 52.2207 10.7524C52.0436 10.9139 51.8483 11.0728 51.6348 11.229C51.4212 11.38 51.1947 11.5233 50.9551 11.6587C50.7155 11.7941 50.4733 11.9113 50.2285 12.0103C49.9889 12.1092 49.752 12.1873 49.5176 12.2446C49.2884 12.3019 49.0723 12.3306 48.8691 12.3306C48.5202 12.3306 48.2311 12.2707 48.002 12.1509C47.7728 12.0311 47.5905 11.8696 47.4551 11.6665C47.3249 11.4634 47.2311 11.2264 47.1738 10.9556C47.1217 10.6847 47.0957 10.3957 47.0957 10.0884C47.0957 9.77588 47.1296 9.46338 47.1973 9.15088C47.2702 8.83317 47.3639 8.52067 47.4785 8.21338C47.5983 7.90609 47.7311 7.60661 47.877 7.31494C48.028 7.01807 48.179 6.73161 48.3301 6.45557C48.7207 5.74202 49.1634 5.19775 49.6582 4.82275C50.1582 4.44255 50.6842 4.25244 51.2363 4.25244C51.5176 4.25244 51.7988 4.31494 52.0801 4.43994C52.3613 4.56494 52.5931 4.74463 52.7754 4.979C52.8275 5.0415 52.8848 5.14827 52.9473 5.29932C53.015 5.45036 53.0775 5.604 53.1348 5.76025C53.1973 5.9165 53.252 6.05973 53.2988 6.18994C53.3509 6.32015 53.3874 6.39827 53.4082 6.42432C53.5228 6.57015 53.6556 6.71338 53.8066 6.854C53.9577 6.98942 54.127 7.11182 54.3145 7.22119C54.502 7.33057 54.7025 7.41911 54.916 7.48682C55.1348 7.54932 55.3639 7.58057 55.6035 7.58057C55.916 7.58057 56.2441 7.50505 56.5879 7.354C56.9368 7.20296 57.2546 6.99723 57.541 6.73682C57.6296 6.65869 57.7077 6.59359 57.7754 6.5415C57.8431 6.48421 57.9108 6.45557 57.9785 6.45557C58.0046 6.45557 58.0306 6.46598 58.0566 6.48682C58.0827 6.50765 58.1061 6.53369 58.127 6.56494C58.153 6.59098 58.1738 6.61963 58.1895 6.65088C58.2051 6.68213 58.2129 6.70557 58.2129 6.72119ZM52.0879 7.15869C52.0879 6.95036 52.0723 6.79671 52.041 6.69775C52.0098 6.59359 51.9681 6.51025 51.916 6.44775C51.8639 6.38525 51.804 6.32275 51.7363 6.26025C51.6686 6.19775 51.5983 6.0988 51.5254 5.96338C51.4473 5.81755 51.377 5.71077 51.3145 5.64307C51.2572 5.57536 51.1556 5.5415 51.0098 5.5415C50.6452 5.5415 50.2962 5.7238 49.9629 6.08838C49.7962 6.27067 49.6374 6.479 49.4863 6.71338C49.3353 6.94255 49.1947 7.19775 49.0645 7.479C48.9603 7.69775 48.8587 7.93734 48.7598 8.19775C48.6608 8.45296 48.5723 8.71338 48.4941 8.979C48.416 9.24463 48.3509 9.50765 48.2988 9.76807C48.252 10.0233 48.2285 10.2629 48.2285 10.4868C48.2285 10.5806 48.2493 10.6717 48.291 10.7603C48.3327 10.8488 48.3952 10.9269 48.4785 10.9946C48.5618 11.0623 48.6608 11.117 48.7754 11.1587C48.8952 11.2004 49.0332 11.2212 49.1895 11.2212C49.304 11.2212 49.4473 11.1873 49.6191 11.1196C49.7962 11.0519 49.9759 10.9686 50.1582 10.8696C50.3405 10.7707 50.5098 10.6665 50.666 10.5571C50.8275 10.4425 50.9525 10.341 51.041 10.2524C51.291 9.98682 51.4863 9.74463 51.627 9.52588C51.7676 9.30713 51.8717 9.08577 51.9395 8.86182C52.0072 8.63265 52.0488 8.38525 52.0645 8.11963C52.0801 7.8488 52.0879 7.52848 52.0879 7.15869ZM67.5254 6.67432C67.5254 6.7264 67.4993 6.79671 67.4473 6.88525C67.3952 6.9738 67.3275 7.07015 67.2441 7.17432C67.166 7.27848 67.0749 7.38786 66.9707 7.50244C66.8665 7.61702 66.7624 7.7264 66.6582 7.83057C66.4134 8.07536 66.1374 8.32275 65.8301 8.57275C65.5228 8.82275 65.1947 9.07015 64.8457 9.31494C64.502 9.55452 64.1426 9.7915 63.7676 10.0259C63.3926 10.2603 63.0098 10.4868 62.6191 10.7056C62.6191 10.8045 62.5905 10.9582 62.5332 11.1665C62.4759 11.3748 62.3926 11.6092 62.2832 11.8696C62.1738 12.1248 62.0358 12.3931 61.8691 12.6743C61.7077 12.9608 61.5176 13.2316 61.2988 13.4868C61.1009 13.7212 60.8796 13.9504 60.6348 14.1743C60.39 14.3983 60.1296 14.5962 59.8535 14.7681C59.5775 14.9451 59.2858 15.0858 58.9785 15.1899C58.6712 15.2993 58.3535 15.354 58.0254 15.354C57.5931 15.354 57.2676 15.2472 57.0488 15.0337C56.8353 14.8201 56.7285 14.5233 56.7285 14.1431C56.7285 13.9556 56.7546 13.7785 56.8066 13.6118C56.8587 13.4451 56.929 13.2863 57.0176 13.1353C57.1061 12.9842 57.2103 12.841 57.3301 12.7056C57.4499 12.5701 57.5775 12.4425 57.7129 12.3228C57.9681 12.0988 58.2337 11.8983 58.5098 11.7212C58.7858 11.5389 59.0723 11.367 59.3691 11.2056C59.666 11.0441 59.9707 10.8879 60.2832 10.7368C60.6009 10.5806 60.9212 10.4139 61.2441 10.2368C61.291 10.2108 61.3353 10.1821 61.377 10.1509C61.4186 10.1196 61.4395 10.0623 61.4395 9.979C61.4395 9.81234 61.4082 9.64827 61.3457 9.48682C61.2832 9.32015 61.1895 9.17171 61.0645 9.0415C60.9447 8.9113 60.7936 8.80713 60.6113 8.729C60.429 8.64567 60.2181 8.604 59.9785 8.604C59.8327 8.604 59.679 8.61702 59.5176 8.64307C59.3561 8.66911 59.2077 8.70557 59.0723 8.75244C58.9993 8.77848 58.916 8.80973 58.8223 8.84619C58.7285 8.87744 58.6322 8.90869 58.5332 8.93994C58.4395 8.97119 58.3483 8.99723 58.2598 9.01807C58.1764 9.0389 58.1035 9.04932 58.041 9.04932C57.9889 9.04932 57.929 9.04411 57.8613 9.03369C57.7936 9.01807 57.7285 8.99463 57.666 8.96338C57.6035 8.92692 57.5488 8.88005 57.502 8.82275C57.4603 8.76546 57.4395 8.69255 57.4395 8.604C57.4395 8.54671 57.4499 8.48421 57.4707 8.4165C57.4967 8.3488 57.5358 8.28369 57.5879 8.22119C57.64 8.15348 57.7077 8.09359 57.791 8.0415C57.8796 7.98942 57.9889 7.95036 58.1191 7.92432C58.3118 7.88786 58.515 7.82796 58.7285 7.74463C58.9421 7.6613 59.1504 7.56234 59.3535 7.44775C59.5618 7.33317 59.7598 7.20296 59.9473 7.05713C60.1348 6.9113 60.2988 6.75505 60.4395 6.58838C60.5853 6.4165 60.6999 6.23682 60.7832 6.04932C60.8665 5.86182 60.9082 5.66911 60.9082 5.47119C60.9082 5.1014 60.8327 4.84098 60.6816 4.68994C60.5358 4.53369 60.3535 4.45557 60.1348 4.45557C59.8379 4.45557 59.5645 4.52588 59.3145 4.6665C59.0645 4.80192 58.7988 5.00244 58.5176 5.26807C58.4238 5.35661 58.3431 5.43473 58.2754 5.50244C58.2129 5.56494 58.1296 5.59619 58.0254 5.59619C57.9525 5.59619 57.89 5.57796 57.8379 5.5415C57.7858 5.50505 57.7415 5.46077 57.7051 5.40869C57.6686 5.3514 57.6426 5.2915 57.627 5.229C57.6113 5.1665 57.6035 5.11182 57.6035 5.06494C57.6035 4.93473 57.6504 4.79932 57.7441 4.65869C57.8431 4.51807 57.9551 4.39567 58.0801 4.2915C58.2207 4.17692 58.3743 4.06494 58.541 3.95557C58.7077 3.84619 58.8874 3.74984 59.0801 3.6665C59.278 3.58317 59.4863 3.51807 59.7051 3.47119C59.929 3.41911 60.166 3.39307 60.416 3.39307C60.6973 3.39307 60.9421 3.44515 61.1504 3.54932C61.3639 3.65348 61.541 3.7915 61.6816 3.96338C61.8223 4.13525 61.9264 4.33317 61.9941 4.55713C62.0618 4.77588 62.0957 5.00244 62.0957 5.23682C62.0957 5.67432 61.9603 6.104 61.6895 6.52588C61.4186 6.94775 60.9967 7.36182 60.4238 7.76807C60.7572 7.76807 61.0749 7.83057 61.377 7.95557C61.6842 8.07536 61.9368 8.26025 62.1348 8.51025C62.2441 8.64567 62.3457 8.81494 62.4395 9.01807C62.5332 9.22119 62.5827 9.41911 62.5879 9.61182C63.291 9.18994 63.9082 8.79932 64.4395 8.43994C64.9707 8.08057 65.4577 7.71598 65.9004 7.34619C66.0931 7.18473 66.2624 7.0363 66.4082 6.90088C66.5592 6.76025 66.6895 6.64046 66.7988 6.5415C66.9134 6.44255 67.0124 6.36702 67.0957 6.31494C67.1842 6.25765 67.2624 6.229 67.3301 6.229C67.3561 6.229 67.3796 6.24463 67.4004 6.27588C67.4264 6.30713 67.4473 6.34619 67.4629 6.39307C67.4837 6.43994 67.4993 6.48942 67.5098 6.5415C67.5202 6.59359 67.5254 6.63786 67.5254 6.67432ZM60.4004 12.9946C60.6348 12.7186 60.8353 12.4217 61.002 12.104C61.1686 11.7863 61.2962 11.4842 61.3848 11.1978C60.6243 11.5363 59.9993 11.8462 59.5098 12.1274C59.0202 12.4087 58.6348 12.6978 58.3535 12.9946C58.2962 13.0571 58.2337 13.1222 58.166 13.1899C58.1035 13.2629 58.0436 13.341 57.9863 13.4243C57.9342 13.5076 57.89 13.5988 57.8535 13.6978C57.8171 13.8019 57.7988 13.9139 57.7988 14.0337C57.7988 14.0649 57.7988 14.1014 57.7988 14.1431C57.804 14.1847 57.8171 14.2212 57.8379 14.2524C57.8587 14.2889 57.8874 14.3201 57.9238 14.3462C57.9655 14.3722 58.0254 14.3853 58.1035 14.3853C58.3223 14.3853 58.5358 14.3436 58.7441 14.2603C58.9577 14.1821 59.1608 14.078 59.3535 13.9478C59.5514 13.8175 59.7363 13.6691 59.9082 13.5024C60.0853 13.3358 60.2493 13.1665 60.4004 12.9946ZM70.4785 3.98682C70.3691 3.12223 70.1322 2.47119 69.7676 2.03369C69.4082 1.59098 68.9655 1.36963 68.4395 1.36963C68.2832 1.36963 68.1191 1.39307 67.9473 1.43994C67.7806 1.48682 67.6113 1.54932 67.4395 1.62744C67.2676 1.70557 67.0983 1.79411 66.9316 1.89307C66.765 1.98682 66.6035 2.08317 66.4473 2.18213C66.3066 2.27067 66.1999 2.32536 66.127 2.34619C66.054 2.36702 65.9811 2.37744 65.9082 2.37744C65.8353 2.37744 65.7676 2.3488 65.7051 2.2915C65.6426 2.23421 65.6113 2.14307 65.6113 2.01807C65.6113 1.95557 65.627 1.88525 65.6582 1.80713C65.6947 1.7238 65.7389 1.64046 65.791 1.55713C65.8483 1.4738 65.9108 1.39307 65.9785 1.31494C66.0514 1.23682 66.1217 1.17171 66.1895 1.11963C66.5853 0.822754 67.002 0.590983 67.4395 0.424316C67.8822 0.252441 68.2988 0.166504 68.6895 0.166504C69.1895 0.166504 69.6426 0.2889 70.0488 0.533691C70.4551 0.773275 70.7988 1.11702 71.0801 1.56494C71.3665 2.00765 71.5853 2.54671 71.7363 3.18213C71.8926 3.81234 71.9707 4.51807 71.9707 5.29932C71.9707 5.54932 71.9577 5.81755 71.9316 6.104C71.9108 6.39046 71.8822 6.67171 71.8457 6.94775C71.8092 7.21859 71.7676 7.4738 71.7207 7.71338C71.6738 7.94775 71.627 8.14567 71.5801 8.30713C71.429 8.82796 71.2207 9.32015 70.9551 9.78369C70.6947 10.2472 70.39 10.6535 70.041 11.0024C69.6973 11.3462 69.3145 11.6196 68.8926 11.8228C68.4707 12.0259 68.0254 12.1274 67.5566 12.1274C67.2129 12.1274 66.9056 12.0597 66.6348 11.9243C66.3639 11.7837 66.1348 11.5884 65.9473 11.3384C65.765 11.0832 65.6243 10.7785 65.5254 10.4243C65.4264 10.0649 65.377 9.6665 65.377 9.229C65.377 8.87484 65.429 8.51807 65.5332 8.15869C65.6426 7.79411 65.7988 7.43994 66.002 7.09619C66.2051 6.74723 66.4525 6.4139 66.7441 6.09619C67.041 5.77848 67.3796 5.48682 67.7598 5.22119C68.14 4.95036 68.5566 4.71077 69.0098 4.50244C69.4629 4.2889 69.9525 4.11702 70.4785 3.98682ZM67.8066 10.9868C68.015 10.9868 68.2389 10.9217 68.4785 10.7915C68.7181 10.6561 68.9525 10.4608 69.1816 10.2056C69.4108 9.94515 69.627 9.62484 69.8301 9.24463C70.0332 8.86442 70.2025 8.42952 70.3379 7.93994C70.3743 7.80973 70.4134 7.62484 70.4551 7.38525C70.502 7.14567 70.541 6.88525 70.5723 6.604C70.6035 6.32275 70.6243 6.0415 70.6348 5.76025C70.6452 5.479 70.6322 5.23161 70.5957 5.01807C70.1738 5.13786 69.7337 5.32015 69.2754 5.56494C68.8223 5.80973 68.4056 6.11442 68.0254 6.479C67.6452 6.84359 67.3327 7.26546 67.0879 7.74463C66.8431 8.21859 66.7207 8.74723 66.7207 9.33057C66.7207 9.90869 66.8118 10.3306 66.9941 10.5962C67.1816 10.8566 67.4525 10.9868 67.8066 10.9868ZM78.1973 6.34619C78.1973 5.95557 78.1374 5.67432 78.0176 5.50244C77.903 5.33057 77.7702 5.24463 77.6191 5.24463C77.4889 5.24463 77.3561 5.27067 77.2207 5.32275C77.0905 5.36963 76.9655 5.43213 76.8457 5.51025C76.7259 5.58838 76.6165 5.67432 76.5176 5.76807C76.4186 5.86182 76.3379 5.95296 76.2754 6.0415C76.1504 6.20817 76.0176 6.39827 75.877 6.61182C75.7415 6.82536 75.6035 7.04932 75.4629 7.28369C75.3275 7.51807 75.1973 7.75765 75.0723 8.00244C74.9473 8.24723 74.8353 8.48682 74.7363 8.72119C74.6426 8.95036 74.5671 9.17171 74.5098 9.38525C74.4525 9.59359 74.4238 9.78109 74.4238 9.94775C74.4238 10.1925 74.4707 10.3905 74.5645 10.5415C74.6582 10.6873 74.8353 10.7603 75.0957 10.7603C75.1842 10.7603 75.3145 10.7056 75.4863 10.5962C75.6582 10.4816 75.8405 10.3384 76.0332 10.1665C76.2311 9.99463 76.4238 9.80973 76.6113 9.61182C76.7988 9.40869 76.9525 9.21598 77.0723 9.03369C77.2025 8.84098 77.3327 8.63005 77.4629 8.40088C77.5983 8.17171 77.7207 7.93734 77.8301 7.69775C77.9395 7.45817 78.028 7.2238 78.0957 6.99463C78.1634 6.76025 78.1973 6.54411 78.1973 6.34619ZM83.0176 9.26807C83.0176 9.38786 82.9759 9.53109 82.8926 9.69775C82.8145 9.86442 82.6895 10.0649 82.5176 10.2993C82.3717 10.4972 82.2103 10.6873 82.0332 10.8696C81.8561 11.0519 81.666 11.2134 81.4629 11.354C81.2598 11.4946 81.0462 11.6066 80.8223 11.6899C80.5983 11.7733 80.3665 11.8149 80.127 11.8149C79.8145 11.8149 79.5384 11.7472 79.2988 11.6118C79.0645 11.4764 78.8613 11.2915 78.6895 11.0571C78.5228 10.8175 78.39 10.5415 78.291 10.229C78.1921 9.9113 78.1243 9.57275 78.0879 9.21338C77.8587 9.54671 77.5853 9.87744 77.2676 10.2056C76.9551 10.5337 76.6296 10.8306 76.291 11.0962C75.9577 11.3566 75.627 11.5701 75.2988 11.7368C74.9759 11.8983 74.6895 11.979 74.4395 11.979C74.2728 11.979 74.1113 11.9373 73.9551 11.854C73.804 11.7707 73.6686 11.6587 73.5488 11.5181C73.4342 11.3774 73.3431 11.216 73.2754 11.0337C73.2077 10.8514 73.1738 10.6587 73.1738 10.4556C73.1738 10.2524 73.1895 10.0389 73.2207 9.81494C73.2572 9.59098 73.3145 9.3514 73.3926 9.09619C73.4759 8.83577 73.5801 8.55452 73.7051 8.25244C73.8353 7.95036 73.9941 7.61963 74.1816 7.26025C74.39 6.854 74.6374 6.47119 74.9238 6.11182C75.2103 5.74723 75.502 5.42952 75.7988 5.15869C76.0957 4.88265 76.377 4.6665 76.6426 4.51025C76.9134 4.3488 77.1322 4.26807 77.2988 4.26807C77.3457 4.26807 77.3978 4.27848 77.4551 4.29932C77.5176 4.32015 77.5801 4.34359 77.6426 4.36963C77.7103 4.39046 77.7728 4.4113 77.8301 4.43213C77.8926 4.44775 77.9447 4.45557 77.9863 4.45557C78.028 4.45557 78.0697 4.44775 78.1113 4.43213C78.153 4.4113 78.1947 4.39046 78.2363 4.36963C78.278 4.34359 78.3197 4.32015 78.3613 4.29932C78.403 4.27848 78.4447 4.26807 78.4863 4.26807C78.5488 4.26807 78.6165 4.2889 78.6895 4.33057C78.7624 4.37223 78.8327 4.42692 78.9004 4.49463C78.9681 4.55713 79.028 4.63005 79.0801 4.71338C79.1322 4.79671 79.1686 4.87744 79.1895 4.95557C79.2103 5.04932 79.2363 5.11963 79.2676 5.1665C79.304 5.20817 79.3379 5.24723 79.3691 5.28369C79.4056 5.32015 79.4342 5.36442 79.4551 5.4165C79.4811 5.46338 79.4941 5.5389 79.4941 5.64307C79.4941 5.69515 79.4759 5.80452 79.4395 5.97119C79.403 6.13786 79.3613 6.33317 79.3145 6.55713C79.2728 6.77588 79.2337 7.00505 79.1973 7.24463C79.1608 7.48421 79.1426 7.70296 79.1426 7.90088C79.1426 8.45817 79.1712 8.9165 79.2285 9.27588C79.291 9.63525 79.3743 9.91911 79.4785 10.1274C79.5827 10.3358 79.7077 10.4816 79.8535 10.5649C79.9993 10.6483 80.1556 10.6899 80.3223 10.6899C80.4629 10.6899 80.6061 10.6639 80.752 10.6118C80.8978 10.5545 81.041 10.479 81.1816 10.3853C81.3275 10.2915 81.4681 10.1821 81.6035 10.0571C81.7441 9.93213 81.877 9.80192 82.002 9.6665C82.1738 9.479 82.3223 9.32796 82.4473 9.21338C82.5723 9.09359 82.6738 9.03369 82.752 9.03369C82.8249 9.03369 82.8874 9.05713 82.9395 9.104C82.9915 9.15088 83.0176 9.20557 83.0176 9.26807ZM89.8848 9.30713C89.8848 9.34359 89.8535 9.40869 89.791 9.50244C89.7285 9.59098 89.6634 9.69515 89.5957 9.81494C89.3717 10.0701 89.1322 10.328 88.877 10.5884C88.6217 10.8488 88.3535 11.1014 88.0723 11.3462C87.7962 11.5858 87.5072 11.8123 87.2051 12.0259C86.9082 12.2342 86.6035 12.4165 86.291 12.5728C85.9785 12.729 85.6634 12.8514 85.3457 12.9399C85.0332 13.0285 84.7207 13.0701 84.4082 13.0649C83.9707 13.0649 83.5957 12.9946 83.2832 12.854C82.9707 12.7134 82.7129 12.5129 82.5098 12.2524C82.3066 11.9972 82.1582 11.6873 82.0645 11.3228C81.9655 10.953 81.916 10.5415 81.916 10.0884C81.916 9.71338 81.9447 9.32796 82.002 8.93213C82.054 8.53109 82.1426 8.13005 82.2676 7.729C82.3978 7.32275 82.5671 6.92432 82.7754 6.53369C82.9889 6.13786 83.2493 5.75765 83.5566 5.39307C83.8535 5.04932 84.1582 4.79671 84.4707 4.63525C84.7832 4.4738 85.0879 4.39307 85.3848 4.39307C85.5827 4.39307 85.7598 4.42432 85.916 4.48682C86.0775 4.54411 86.2129 4.62484 86.3223 4.729C86.4368 4.83317 86.5254 4.95817 86.5879 5.104C86.6504 5.24463 86.6842 5.40088 86.6895 5.57275C86.6999 5.81755 86.6738 6.05452 86.6113 6.28369C86.554 6.51286 86.4603 6.74202 86.3301 6.97119C86.1999 7.19515 86.0332 7.42692 85.8301 7.6665C85.627 7.90088 85.3874 8.14567 85.1113 8.40088C85.0072 8.49984 84.877 8.62223 84.7207 8.76807C84.5645 8.90869 84.3952 9.05713 84.2129 9.21338C84.0358 9.36963 83.8509 9.52588 83.6582 9.68213C83.4655 9.83838 83.2806 9.979 83.1035 10.104C83.1035 10.3175 83.1296 10.5337 83.1816 10.7524C83.2389 10.966 83.3249 11.1613 83.4395 11.3384C83.5592 11.5103 83.7129 11.6535 83.9004 11.7681C84.0879 11.8774 84.3171 11.9321 84.5879 11.9321C84.9629 11.9321 85.3405 11.867 85.7207 11.7368C86.1009 11.6014 86.4785 11.4165 86.8535 11.1821C87.2285 10.9478 87.6009 10.6691 87.9707 10.3462C88.3405 10.0233 88.7077 9.67171 89.0723 9.2915C89.0931 9.27067 89.1217 9.24723 89.1582 9.22119C89.1947 9.18994 89.2363 9.1613 89.2832 9.13525C89.3301 9.104 89.377 9.07796 89.4238 9.05713C89.4759 9.0363 89.5254 9.02588 89.5723 9.02588C89.5879 9.02588 89.6113 9.0363 89.6426 9.05713C89.679 9.07796 89.7155 9.104 89.752 9.13525C89.7884 9.1613 89.8197 9.18994 89.8457 9.22119C89.8717 9.25244 89.8848 9.28109 89.8848 9.30713ZM85.541 5.97119C85.5306 5.80973 85.4889 5.68473 85.416 5.59619C85.3431 5.50765 85.2467 5.46338 85.127 5.46338C84.9186 5.46338 84.679 5.6014 84.4082 5.87744C84.1426 6.14827 83.8952 6.54411 83.666 7.06494C83.5618 7.30452 83.4551 7.58838 83.3457 7.9165C83.2363 8.24463 83.1634 8.59098 83.127 8.95557C83.3978 8.75244 83.6452 8.5389 83.8691 8.31494C84.0983 8.09098 84.3066 7.88525 84.4941 7.69775C84.6035 7.58838 84.7207 7.45817 84.8457 7.30713C84.9707 7.15088 85.0853 6.99202 85.1895 6.83057C85.2988 6.66911 85.3848 6.51286 85.4473 6.36182C85.515 6.21077 85.5462 6.08057 85.541 5.97119ZM106.01 9.23682C106.01 9.40869 105.968 9.56494 105.885 9.70557C105.807 9.84619 105.731 9.96077 105.658 10.0493C105.367 10.3931 105.075 10.7056 104.783 10.9868C104.492 11.2629 104.21 11.4998 103.939 11.6978C103.669 11.8905 103.408 12.0389 103.158 12.1431C102.913 12.2472 102.689 12.2993 102.486 12.2993C101.898 12.2993 101.468 12.0988 101.197 11.6978C100.932 11.2967 100.799 10.742 100.799 10.0337C100.799 9.84098 100.807 9.62223 100.822 9.37744C100.843 9.13265 100.869 8.88265 100.9 8.62744C100.932 8.36702 100.968 8.10921 101.01 7.854C101.051 7.59359 101.098 7.354 101.15 7.13525C101.083 7.27067 101.01 7.40869 100.932 7.54932C100.859 7.68473 100.775 7.83057 100.682 7.98682C100.588 8.14307 100.481 8.30713 100.361 8.479C100.242 8.65088 100.106 8.83838 99.9551 9.0415C99.752 9.30713 99.5306 9.58838 99.291 9.88525C99.0514 10.1821 98.7962 10.453 98.5254 10.6978C98.2546 10.9425 97.9681 11.1457 97.666 11.3071C97.3639 11.4686 97.0462 11.5493 96.7129 11.5493C96.5671 11.5493 96.4056 11.5155 96.2285 11.4478C96.0566 11.3748 95.8926 11.2629 95.7363 11.1118C95.5853 10.9608 95.4577 10.7629 95.3535 10.5181C95.2546 10.2733 95.2051 9.9764 95.2051 9.62744C95.2051 9.46077 95.2155 9.24723 95.2363 8.98682C95.2572 8.72119 95.2832 8.43734 95.3145 8.13525C95.3509 7.83317 95.3926 7.52327 95.4395 7.20557C95.4863 6.88786 95.5358 6.58838 95.5879 6.30713C95.515 6.38005 95.4342 6.49463 95.3457 6.65088C95.2624 6.80192 95.1738 6.98161 95.0801 7.18994C94.9863 7.39307 94.8874 7.61702 94.7832 7.86182C94.6842 8.1014 94.5775 8.34619 94.4629 8.59619C94.3535 8.84619 94.2389 9.09359 94.1191 9.33838C94.0046 9.57796 93.8874 9.80192 93.7676 10.0103C93.3509 10.7134 92.8874 11.2186 92.377 11.5259C91.8665 11.828 91.3092 11.979 90.7051 11.979C90.4759 11.979 90.2546 11.9373 90.041 11.854C89.8275 11.7655 89.6374 11.6353 89.4707 11.4634C89.3092 11.2915 89.179 11.0806 89.0801 10.8306C88.9759 10.5754 88.9238 10.2811 88.9238 9.94775C88.9238 9.90088 88.929 9.84359 88.9395 9.77588C88.9499 9.70817 88.9629 9.64307 88.9785 9.58057C88.9941 9.51286 89.015 9.45036 89.041 9.39307C89.0618 9.33057 89.0853 9.27848 89.1113 9.23682C89.1686 9.1639 89.2415 9.0988 89.3301 9.0415C89.4186 8.98421 89.5514 8.95557 89.7285 8.95557C89.9941 8.95557 90.1426 9.26546 90.1738 9.88525C90.179 9.96859 90.1999 10.0675 90.2363 10.1821C90.2728 10.2915 90.3275 10.3957 90.4004 10.4946C90.4785 10.5936 90.5749 10.6769 90.6895 10.7446C90.804 10.8123 90.9421 10.8462 91.1035 10.8462C91.291 10.8462 91.4889 10.7993 91.6973 10.7056C91.9056 10.6066 92.1139 10.4582 92.3223 10.2603C92.5358 10.0623 92.7441 9.81234 92.9473 9.51025C93.1504 9.20817 93.3431 8.8488 93.5254 8.43213C93.6712 8.09359 93.8197 7.76286 93.9707 7.43994C94.127 7.11182 94.2728 6.80713 94.4082 6.52588C94.5488 6.24463 94.6764 5.99463 94.791 5.77588C94.9056 5.55713 94.9967 5.38786 95.0645 5.26807C95.0801 5.23682 95.1061 5.19515 95.1426 5.14307C95.179 5.08577 95.2207 5.02848 95.2676 4.97119C95.3145 4.90869 95.3613 4.8488 95.4082 4.7915C95.4551 4.729 95.4967 4.67952 95.5332 4.64307C95.5488 4.62744 95.5905 4.604 95.6582 4.57275C95.7259 4.5415 95.7988 4.51025 95.877 4.479C95.9551 4.44775 96.0306 4.41911 96.1035 4.39307C96.1764 4.36702 96.2233 4.354 96.2441 4.354H96.2598C96.3014 4.354 96.3535 4.35921 96.416 4.36963C96.4785 4.37484 96.5384 4.39307 96.5957 4.42432C96.6582 4.45557 96.7103 4.50244 96.752 4.56494C96.7936 4.62223 96.8145 4.70296 96.8145 4.80713C96.8145 4.94255 96.8092 5.06234 96.7988 5.1665C96.7884 5.26546 96.7754 5.36182 96.7598 5.45557C96.7441 5.54411 96.7233 5.63786 96.6973 5.73682C96.6764 5.83057 96.653 5.93734 96.627 6.05713C96.5905 6.23421 96.554 6.45036 96.5176 6.70557C96.4863 6.96077 96.4577 7.21859 96.4316 7.479C96.4108 7.73942 96.3926 7.98942 96.377 8.229C96.3613 8.46338 96.3535 8.65088 96.3535 8.7915C96.3535 9.27067 96.4082 9.64046 96.5176 9.90088C96.6322 10.1561 96.7858 10.2837 96.9785 10.2837C97.1139 10.2837 97.2546 10.2524 97.4004 10.1899C97.5462 10.1222 97.6816 10.0441 97.8066 9.95557C97.9316 9.86702 98.0436 9.77848 98.1426 9.68994C98.2415 9.6014 98.3118 9.53369 98.3535 9.48682C98.6504 9.17432 98.9342 8.84619 99.2051 8.50244C99.4759 8.15869 99.7285 7.81494 99.9629 7.47119C100.197 7.12223 100.411 6.78109 100.604 6.44775C100.796 6.11442 100.963 5.79932 101.104 5.50244C101.14 5.43473 101.184 5.36442 101.236 5.2915C101.288 5.21338 101.348 5.14307 101.416 5.08057C101.484 5.01807 101.554 4.96598 101.627 4.92432C101.705 4.88265 101.786 4.86182 101.869 4.86182C101.906 4.86182 101.96 4.87744 102.033 4.90869C102.111 4.93994 102.189 4.98161 102.268 5.03369C102.346 5.08057 102.413 5.13786 102.471 5.20557C102.533 5.26807 102.564 5.33317 102.564 5.40088C102.564 5.56234 102.538 5.73682 102.486 5.92432C102.434 6.11182 102.38 6.32796 102.322 6.57275C102.275 6.77067 102.231 6.99202 102.189 7.23682C102.148 7.48161 102.109 7.73942 102.072 8.01025C102.036 8.28109 102.007 8.55713 101.986 8.83838C101.965 9.11442 101.955 9.38525 101.955 9.65088C101.955 10.1457 102.023 10.5207 102.158 10.7759C102.299 11.0311 102.518 11.1587 102.814 11.1587C102.971 11.1587 103.14 11.117 103.322 11.0337C103.51 10.9504 103.705 10.8332 103.908 10.6821C104.117 10.5259 104.333 10.341 104.557 10.1274C104.781 9.9139 105.012 9.67432 105.252 9.40869C105.372 9.27848 105.481 9.17952 105.58 9.11182C105.684 9.04411 105.757 9.01025 105.799 9.01025C105.856 9.01025 105.906 9.03109 105.947 9.07275C105.989 9.10921 106.01 9.1639 106.01 9.23682ZM2.00977 28.0493C1.92122 28.0389 1.83268 28.0233 1.74414 28.0024C1.6556 27.9816 1.57487 27.9478 1.50195 27.9009C1.43424 27.854 1.37695 27.7941 1.33008 27.7212C1.28841 27.6483 1.26758 27.5545 1.26758 27.4399C1.26758 27.2056 1.32747 27.0155 1.44727 26.8696C1.57227 26.7238 1.73372 26.6457 1.93164 26.6353C2.18685 26.6248 2.41602 26.617 2.61914 26.6118C2.82227 26.6014 3.01237 26.5936 3.18945 26.5884C3.36654 26.5832 3.53841 26.578 3.70508 26.5728C3.87695 26.5623 4.05404 26.5545 4.23633 26.5493C4.41862 26.5441 4.61393 26.5415 4.82227 26.5415C5.03581 26.5363 5.27799 26.5337 5.54883 26.5337C5.57487 26.5337 5.65299 26.5311 5.7832 26.5259C5.91862 26.5207 6.07747 26.5129 6.25977 26.5024C6.44727 26.492 6.64779 26.4816 6.86133 26.4712C7.07487 26.4608 7.2806 26.4504 7.47852 26.4399C7.67643 26.4295 7.85352 26.4217 8.00977 26.4165C8.17122 26.4061 8.28581 26.3983 8.35352 26.3931C8.4681 26.3931 8.60352 26.38 8.75977 26.354C8.91602 26.328 9.07747 26.2993 9.24414 26.2681C9.41081 26.2316 9.57487 26.2004 9.73633 26.1743C9.90299 26.1483 10.0488 26.1353 10.1738 26.1353C10.252 26.1353 10.3092 26.1405 10.3457 26.1509C10.3874 26.1613 10.4212 26.1743 10.4473 26.1899C10.4785 26.2004 10.5098 26.2108 10.541 26.2212C10.5775 26.2316 10.627 26.2368 10.6895 26.2368C10.8092 26.2368 10.916 26.2264 11.0098 26.2056C11.1087 26.1847 11.2103 26.1743 11.3145 26.1743C11.4915 26.1743 11.64 26.2186 11.7598 26.3071C11.8848 26.3905 11.9473 26.5311 11.9473 26.729C11.9473 26.8644 11.9238 26.9842 11.877 27.0884C11.8301 27.1925 11.7702 27.2811 11.6973 27.354C11.6243 27.4269 11.541 27.4842 11.4473 27.5259C11.3587 27.5675 11.2702 27.591 11.1816 27.5962C11.0254 27.6066 10.903 27.6587 10.8145 27.7524C10.7259 27.841 10.6608 27.953 10.6191 28.0884C10.5254 28.3957 10.4395 28.7576 10.3613 29.1743C10.2832 29.5858 10.2103 30.0337 10.1426 30.5181C10.0801 30.9972 10.0228 31.5024 9.9707 32.0337C9.92383 32.5649 9.88216 33.1014 9.8457 33.6431C9.81445 34.1847 9.78841 34.7238 9.76758 35.2603C9.75195 35.7915 9.74414 36.3019 9.74414 36.7915V37.0728C9.74414 37.1353 9.7207 37.1978 9.67383 37.2603C9.63216 37.3228 9.58008 37.38 9.51758 37.4321C9.45508 37.4842 9.38997 37.5259 9.32227 37.5571C9.25977 37.5936 9.20768 37.6144 9.16602 37.6196C8.94206 37.6196 8.77279 37.5441 8.6582 37.3931C8.54362 37.2472 8.46029 37.0728 8.4082 36.8696C8.36133 36.6665 8.33529 36.4582 8.33008 36.2446C8.32487 36.0311 8.32227 35.8592 8.32227 35.729C8.32227 35.4894 8.33268 35.2004 8.35352 34.8618C8.37435 34.5233 8.40299 34.1587 8.43945 33.7681C8.47591 33.3722 8.51758 32.9634 8.56445 32.5415C8.61133 32.1144 8.6582 31.6978 8.70508 31.2915C8.75716 30.88 8.80664 30.4868 8.85352 30.1118C8.9056 29.7368 8.94987 29.4035 8.98633 29.1118C9.02799 28.8201 9.06185 28.5806 9.08789 28.3931C9.11393 28.2056 9.12956 28.0936 9.13477 28.0571C9.1556 27.9321 9.12956 27.8436 9.05664 27.7915C8.98893 27.7342 8.84049 27.7004 8.61133 27.6899C8.41862 27.6847 8.2207 27.6821 8.01758 27.6821C7.81966 27.6769 7.62435 27.6743 7.43164 27.6743C7.23893 27.6691 7.05924 27.6665 6.89258 27.6665C6.72591 27.6665 6.58268 27.6665 6.46289 27.6665C6.2806 27.6665 6.06706 27.6691 5.82227 27.6743C5.57747 27.6795 5.33529 27.6951 5.0957 27.7212C4.85612 27.742 4.63477 27.7785 4.43164 27.8306C4.23372 27.8774 4.09049 27.9451 4.00195 28.0337C3.96549 28.0701 3.92383 28.1561 3.87695 28.2915C3.83529 28.4217 3.79362 28.5962 3.75195 28.8149C3.71029 29.0337 3.66862 29.2915 3.62695 29.5884C3.58529 29.88 3.54883 30.2056 3.51758 30.5649C3.49154 30.8306 3.45247 31.1248 3.40039 31.4478C3.35352 31.7655 3.30143 32.0962 3.24414 32.4399C3.18685 32.7785 3.12695 33.1196 3.06445 33.4634C3.00716 33.8071 2.95508 34.1379 2.9082 34.4556C2.89779 34.5441 2.87956 34.6717 2.85352 34.8384C2.83268 35.005 2.80924 35.1873 2.7832 35.3853C2.76237 35.5832 2.74414 35.7837 2.72852 35.9868C2.71289 36.1847 2.70508 36.3566 2.70508 36.5024C2.70508 36.5806 2.71029 36.6639 2.7207 36.7524C2.73112 36.8358 2.73633 36.9165 2.73633 36.9946C2.73633 37.0832 2.72591 37.1691 2.70508 37.2524C2.68945 37.3358 2.6582 37.4087 2.61133 37.4712C2.56445 37.5389 2.49674 37.591 2.4082 37.6274C2.31966 37.6691 2.20508 37.6925 2.06445 37.6978C1.88216 37.6978 1.73633 37.6639 1.62695 37.5962C1.52279 37.5337 1.44206 37.453 1.38477 37.354C1.33268 37.255 1.29883 37.1457 1.2832 37.0259C1.26758 36.9061 1.25977 36.7941 1.25977 36.6899C1.25977 36.6222 1.26237 36.5259 1.26758 36.4009C1.27799 36.2707 1.28841 36.1353 1.29883 35.9946C1.31445 35.8488 1.33008 35.7108 1.3457 35.5806C1.36133 35.4451 1.37695 35.341 1.39258 35.2681C1.41341 35.1691 1.43685 35.0415 1.46289 34.8853C1.49414 34.7238 1.52799 34.5519 1.56445 34.3696C1.60091 34.1873 1.63477 33.9998 1.66602 33.8071C1.70247 33.6092 1.73372 33.4243 1.75977 33.2524C1.82227 32.8462 1.88997 32.4399 1.96289 32.0337C2.03581 31.6222 2.10352 31.216 2.16602 30.8149C2.22852 30.4139 2.2806 30.0181 2.32227 29.6274C2.36393 29.2368 2.38477 28.8592 2.38477 28.4946C2.38477 28.354 2.35872 28.2498 2.30664 28.1821C2.25977 28.1092 2.16081 28.0649 2.00977 28.0493ZM21.8926 30.6821C21.8926 31.2446 21.8275 31.7681 21.6973 32.2524C21.5671 32.7368 21.3796 33.1951 21.1348 33.6274C20.89 34.0545 20.5879 34.4634 20.2285 34.854C19.8691 35.2394 19.4629 35.6222 19.0098 36.0024C18.8379 36.1431 18.6426 36.2811 18.4238 36.4165C18.2103 36.5519 17.9863 36.6717 17.752 36.7759C17.5176 36.88 17.2806 36.966 17.041 37.0337C16.8066 37.0962 16.5853 37.1274 16.377 37.1274C16.2259 37.1274 16.0957 37.1066 15.9863 37.0649C15.8822 37.0233 15.7858 36.966 15.6973 36.8931C15.6139 36.8201 15.5332 36.7368 15.4551 36.6431C15.3822 36.5441 15.304 36.4425 15.2207 36.3384C15.0853 36.8644 14.9707 37.3254 14.877 37.7212C14.7884 38.1222 14.7129 38.492 14.6504 38.8306C14.5879 39.1743 14.5332 39.5076 14.4863 39.8306C14.4395 40.1587 14.39 40.5155 14.3379 40.9009C14.3275 40.9842 14.3014 41.0806 14.2598 41.1899C14.2233 41.3045 14.179 41.4113 14.127 41.5103C14.0749 41.6092 14.015 41.6925 13.9473 41.7603C13.8848 41.8332 13.8197 41.8696 13.752 41.8696C13.679 41.8696 13.5905 41.8462 13.4863 41.7993C13.3874 41.7576 13.2936 41.703 13.2051 41.6353C13.1165 41.5728 13.041 41.5076 12.9785 41.4399C12.916 41.3722 12.8848 41.3149 12.8848 41.2681C12.8848 41.0858 12.9056 40.9035 12.9473 40.7212C12.9941 40.5389 13.0332 40.3644 13.0645 40.1978C13.2259 39.3748 13.3926 38.604 13.5645 37.8853C13.7415 37.1665 13.9004 36.453 14.041 35.7446C14.1816 35.0363 14.2962 34.3071 14.3848 33.5571C14.4785 32.8019 14.5254 31.979 14.5254 31.0884C14.5254 31.0675 14.5228 31.0207 14.5176 30.9478C14.5176 30.8696 14.5176 30.7889 14.5176 30.7056C14.5176 30.617 14.515 30.5363 14.5098 30.4634C14.5098 30.3905 14.5098 30.341 14.5098 30.3149C14.5098 30.1431 14.5306 29.9738 14.5723 29.8071C14.6139 29.6405 14.6712 29.492 14.7441 29.3618C14.8223 29.2264 14.916 29.117 15.0254 29.0337C15.1348 28.9504 15.2572 28.9087 15.3926 28.9087C15.4499 28.9087 15.5072 28.9399 15.5645 29.0024C15.6217 29.0597 15.6738 29.1405 15.7207 29.2446C15.7676 29.3436 15.804 29.4634 15.8301 29.604C15.8613 29.7446 15.877 29.8957 15.877 30.0571C15.877 30.328 15.8613 30.6379 15.8301 30.9868C15.7988 31.3358 15.7598 31.6899 15.7129 32.0493C15.6712 32.4035 15.627 32.742 15.5801 33.0649C15.5332 33.3879 15.4967 33.6587 15.4707 33.8774C15.6738 33.4191 15.9082 32.9816 16.1738 32.5649C16.4447 32.1483 16.7259 31.7629 17.0176 31.4087C17.3092 31.0545 17.6061 30.7368 17.9082 30.4556C18.2155 30.1691 18.5098 29.9243 18.791 29.7212C19.0723 29.5181 19.3353 29.3644 19.5801 29.2603C19.8249 29.1509 20.0332 29.0962 20.2051 29.0962C20.4395 29.0962 20.6582 29.1431 20.8613 29.2368C21.0697 29.3254 21.2493 29.4451 21.4004 29.5962C21.5566 29.742 21.6764 29.9113 21.7598 30.104C21.8483 30.2915 21.8926 30.4842 21.8926 30.6821ZM20.6113 31.4087C20.6113 31.1795 20.5853 30.9946 20.5332 30.854C20.4811 30.7134 20.4186 30.6066 20.3457 30.5337C20.2728 30.4556 20.1947 30.4035 20.1113 30.3774C20.0332 30.3514 19.9681 30.3384 19.916 30.3384C19.7077 30.3384 19.4681 30.4321 19.1973 30.6196C18.9264 30.8019 18.6452 31.0441 18.3535 31.3462C18.0618 31.6431 17.7702 31.9816 17.4785 32.3618C17.1868 32.742 16.916 33.1248 16.666 33.5103C16.6035 33.6092 16.5202 33.742 16.416 33.9087C16.3171 34.0754 16.2207 34.2498 16.127 34.4321C16.0332 34.6092 15.9525 34.7785 15.8848 34.9399C15.8171 35.1014 15.7832 35.2238 15.7832 35.3071C15.7832 35.354 15.804 35.4139 15.8457 35.4868C15.8874 35.5597 15.9473 35.6326 16.0254 35.7056C16.1087 35.7733 16.2103 35.8332 16.3301 35.8853C16.4551 35.9373 16.5983 35.9634 16.7598 35.9634C16.9785 35.9634 17.2259 35.8983 17.502 35.7681C17.778 35.6326 18.0566 35.453 18.3379 35.229C18.6243 34.9998 18.903 34.7342 19.1738 34.4321C19.4499 34.13 19.6921 33.8123 19.9004 33.479C20.1139 33.1405 20.2858 32.7941 20.416 32.4399C20.5462 32.0858 20.6113 31.742 20.6113 31.4087ZM33.4473 31.7837C33.4473 31.8201 33.4238 31.8931 33.377 32.0024C33.3353 32.1118 33.2806 32.2264 33.2129 32.3462C32.6243 33.1118 32.0358 33.8384 31.4473 34.5259C30.8639 35.2082 30.291 35.8071 29.7285 36.3228C29.166 36.8332 28.6191 37.2368 28.0879 37.5337C27.5618 37.8306 27.0618 37.9738 26.5879 37.9634C26.1504 37.9634 25.7728 37.8905 25.4551 37.7446C25.1426 37.5988 24.8848 37.3931 24.6816 37.1274C24.4785 36.8618 24.3275 36.5441 24.2285 36.1743C24.1296 35.7993 24.0801 35.3853 24.0801 34.9321C24.0801 34.5675 24.1113 34.1847 24.1738 33.7837C24.2363 33.3826 24.3353 32.9842 24.4707 32.5884C24.6009 32.1925 24.7676 31.8071 24.9707 31.4321C25.1738 31.0519 25.4186 30.7004 25.7051 30.3774C25.8197 30.2472 25.9499 30.1222 26.0957 30.0024C26.2415 29.8774 26.3952 29.7655 26.5566 29.6665C26.7233 29.5675 26.8926 29.4868 27.0645 29.4243C27.2415 29.3618 27.416 29.3254 27.5879 29.3149C27.7702 29.3097 27.9395 29.3436 28.0957 29.4165C28.252 29.4842 28.3874 29.578 28.502 29.6978C28.6165 29.8175 28.7077 29.9582 28.7754 30.1196C28.8431 30.2811 28.8796 30.4478 28.8848 30.6196C28.9056 31.0415 28.7832 31.4816 28.5176 31.9399C28.2572 32.3931 27.8405 32.8879 27.2676 33.4243C27.1634 33.5233 27.0332 33.6431 26.877 33.7837C26.7207 33.9243 26.5514 34.0728 26.3691 34.229C26.1921 34.38 26.0072 34.5337 25.8145 34.6899C25.627 34.841 25.4447 34.979 25.2676 35.104C25.2676 35.3175 25.2962 35.5259 25.3535 35.729C25.4108 35.9321 25.4993 36.117 25.6191 36.2837C25.7441 36.4451 25.9004 36.5754 26.0879 36.6743C26.2806 36.7733 26.5124 36.8228 26.7832 36.8228C27.0645 36.8228 27.3587 36.7576 27.666 36.6274C27.9733 36.492 28.2884 36.3097 28.6113 36.0806C28.9395 35.8462 29.2702 35.5728 29.6035 35.2603C29.9421 34.9425 30.2832 34.604 30.627 34.2446C30.9707 33.88 31.3145 33.4998 31.6582 33.104C32.0072 32.7082 32.3509 32.3123 32.6895 31.9165C32.7103 31.8957 32.7389 31.867 32.7754 31.8306C32.8118 31.7941 32.8509 31.7576 32.8926 31.7212C32.9395 31.6795 32.9863 31.6457 33.0332 31.6196C33.0853 31.5884 33.1348 31.5728 33.1816 31.5728C33.1973 31.5728 33.2181 31.5806 33.2441 31.5962C33.2754 31.6066 33.3066 31.6222 33.3379 31.6431C33.3691 31.6587 33.3952 31.6795 33.416 31.7056C33.4368 31.7316 33.4473 31.7576 33.4473 31.7837ZM27.7207 31.0181C27.7103 30.8566 27.6738 30.7264 27.6113 30.6274C27.554 30.5285 27.4655 30.4816 27.3457 30.4868C27.0697 30.5024 26.7936 30.6561 26.5176 30.9478C26.2415 31.2394 25.9863 31.6769 25.752 32.2603C25.7051 32.38 25.6582 32.5155 25.6113 32.6665C25.5645 32.8123 25.5202 32.9608 25.4785 33.1118C25.4421 33.2629 25.4056 33.4139 25.3691 33.5649C25.3379 33.7108 25.3118 33.841 25.291 33.9556C25.5618 33.7524 25.804 33.5415 26.0176 33.3228C26.2311 33.104 26.4316 32.9009 26.6191 32.7134C26.765 32.5675 26.9056 32.4217 27.041 32.2759C27.1764 32.1248 27.2936 31.979 27.3926 31.8384C27.4967 31.6925 27.5775 31.5519 27.6348 31.4165C27.6973 31.2759 27.7259 31.1431 27.7207 31.0181ZM44.0801 32.0962C44.0801 32.1431 44.0514 32.2186 43.9941 32.3228C43.9421 32.4269 43.8691 32.5493 43.7754 32.6899C43.6816 32.8306 43.5723 32.9842 43.4473 33.1509C43.3223 33.3175 43.1895 33.4894 43.0488 33.6665C42.4811 34.38 41.9499 34.9816 41.4551 35.4712C40.9603 35.9556 40.4993 36.3462 40.0723 36.6431C39.6452 36.9399 39.2493 37.1535 38.8848 37.2837C38.5202 37.4139 38.1816 37.479 37.8691 37.479C37.6035 37.479 37.3483 37.4399 37.1035 37.3618C36.8587 37.2837 36.6322 37.1613 36.4238 36.9946C36.2207 36.828 36.0436 36.6144 35.8926 36.354C35.7415 36.0936 35.627 35.7811 35.5488 35.4165C35.502 35.1978 35.4447 35.0181 35.377 34.8774C35.3092 34.7316 35.2389 34.617 35.166 34.5337C35.0931 34.4451 35.0176 34.3826 34.9395 34.3462C34.8665 34.3097 34.7962 34.2915 34.7285 34.2915C34.5775 34.2915 34.4316 34.3384 34.291 34.4321C34.1556 34.5259 34.0384 34.6535 33.9395 34.8149C33.8978 34.8826 33.8561 34.992 33.8145 35.1431C33.778 35.2941 33.7363 35.4686 33.6895 35.6665C33.6478 35.8644 33.6009 36.0754 33.5488 36.2993C33.502 36.5233 33.4499 36.7394 33.3926 36.9478C33.3457 37.13 33.2832 37.2707 33.2051 37.3696C33.127 37.4686 33.0436 37.5415 32.9551 37.5884C32.8717 37.6353 32.7884 37.6639 32.7051 37.6743C32.6217 37.6847 32.5462 37.6899 32.4785 37.6899C32.4004 37.6899 32.3327 37.6691 32.2754 37.6274C32.2233 37.591 32.179 37.5415 32.1426 37.479C32.1061 37.4217 32.0775 37.3566 32.0566 37.2837C32.041 37.2108 32.0332 37.1379 32.0332 37.0649C32.0332 36.9556 32.0514 36.8306 32.0879 36.6899C32.1296 36.5441 32.1816 36.3644 32.2441 36.1509C32.3066 35.9321 32.3796 35.6665 32.4629 35.354C32.5462 35.0363 32.6322 34.6483 32.7207 34.1899C32.7728 33.9139 32.8197 33.6092 32.8613 33.2759C32.903 32.9373 32.9368 32.591 32.9629 32.2368C32.9889 31.8774 33.0072 31.5207 33.0176 31.1665C33.0332 30.8123 33.041 30.479 33.041 30.1665C33.041 30.0675 33.0618 29.9738 33.1035 29.8853C33.1504 29.7967 33.2077 29.7186 33.2754 29.6509C33.3431 29.5832 33.416 29.5311 33.4941 29.4946C33.5723 29.453 33.6452 29.4321 33.7129 29.4321C33.8014 29.4321 33.8874 29.453 33.9707 29.4946C34.054 29.5311 34.127 29.5962 34.1895 29.6899C34.252 29.7785 34.3014 29.8983 34.3379 30.0493C34.3796 30.2004 34.4004 30.3879 34.4004 30.6118C34.4004 30.8931 34.3926 31.1561 34.377 31.4009C34.3613 31.6457 34.3405 31.88 34.3145 32.104C34.2884 32.328 34.2572 32.5493 34.2207 32.7681C34.1895 32.9868 34.153 33.2108 34.1113 33.4399C34.4551 33.4035 34.7702 33.328 35.0566 33.2134C35.3431 33.0988 35.627 32.9425 35.9082 32.7446C36.1009 32.604 36.2962 32.4373 36.4941 32.2446C36.6921 32.0467 36.877 31.841 37.0488 31.6274C37.2259 31.4139 37.3848 31.203 37.5254 30.9946C37.666 30.7863 37.7754 30.5988 37.8535 30.4321C37.9056 30.328 37.9603 30.2238 38.0176 30.1196C38.0749 30.0103 38.1374 29.9139 38.2051 29.8306C38.278 29.742 38.3561 29.6717 38.4395 29.6196C38.528 29.5623 38.627 29.5337 38.7363 29.5337C38.8249 29.5337 38.9212 29.5493 39.0254 29.5806C39.1296 29.6118 39.2259 29.6587 39.3145 29.7212C39.4082 29.7785 39.4837 29.8488 39.541 29.9321C39.6035 30.0103 39.6348 30.0988 39.6348 30.1978C39.6348 30.2863 39.6009 30.3957 39.5332 30.5259C39.4707 30.6509 39.3691 30.7498 39.2285 30.8228C39.0879 30.8957 38.9264 31.0467 38.7441 31.2759C38.5671 31.505 38.3535 31.7993 38.1035 32.1587C37.8848 32.4712 37.6348 32.755 37.3535 33.0103C37.0775 33.2655 36.7207 33.5155 36.2832 33.7603C36.3822 33.8488 36.4655 33.9764 36.5332 34.1431C36.6009 34.3045 36.666 34.4816 36.7285 34.6743C36.7962 34.867 36.8665 35.0623 36.9395 35.2603C37.0176 35.4582 37.1087 35.6379 37.2129 35.7993C37.3223 35.9608 37.4551 36.0936 37.6113 36.1978C37.7676 36.3019 37.9603 36.354 38.1895 36.354C38.4238 36.354 38.6634 36.3123 38.9082 36.229C39.1582 36.1405 39.4108 36.0181 39.666 35.8618C39.9264 35.7056 40.1868 35.5181 40.4473 35.2993C40.7077 35.0806 40.9681 34.8384 41.2285 34.5728C41.4212 34.3748 41.6243 34.1587 41.8379 33.9243C42.0514 33.6847 42.2546 33.4556 42.4473 33.2368C42.6452 33.0129 42.8223 32.8071 42.9785 32.6196C43.1348 32.4321 43.2493 32.2915 43.3223 32.1978C43.4525 32.0207 43.5592 31.9035 43.6426 31.8462C43.7259 31.7889 43.804 31.7603 43.877 31.7603C43.9551 31.7603 44.0072 31.7993 44.0332 31.8774C44.0645 31.9504 44.0801 32.0233 44.0801 32.0962ZM54.9551 31.3306C54.9551 31.4087 54.9264 31.4998 54.8691 31.604C54.8171 31.703 54.7493 31.8045 54.666 31.9087C54.5827 32.0129 54.4915 32.117 54.3926 32.2212C54.2988 32.3201 54.2129 32.4061 54.1348 32.479C53.8639 32.7238 53.541 32.9868 53.166 33.2681C52.7962 33.5493 52.3796 33.8358 51.916 34.1274C51.4577 34.4139 50.9577 34.703 50.416 34.9946C49.8796 35.2863 49.3092 35.5675 48.7051 35.8384C48.653 35.8644 48.5645 35.9165 48.4395 35.9946C48.3197 36.0728 48.179 36.1665 48.0176 36.2759C47.8561 36.3853 47.6842 36.4998 47.502 36.6196C47.3197 36.7342 47.1452 36.841 46.9785 36.9399C46.8171 37.0389 46.6712 37.1222 46.541 37.1899C46.416 37.2524 46.3249 37.2837 46.2676 37.2837C46.1634 37.2837 46.0592 37.2707 45.9551 37.2446C45.8509 37.2134 45.7546 37.1743 45.666 37.1274C45.5827 37.0806 45.515 37.0285 45.4629 36.9712C45.4108 36.9087 45.3848 36.8462 45.3848 36.7837C45.3848 36.6326 45.4316 36.4998 45.5254 36.3853C45.6191 36.2707 45.7493 36.1691 45.916 36.0806C46.1296 35.9712 46.3066 35.8774 46.4473 35.7993C46.5879 35.7212 46.7103 35.6483 46.8145 35.5806C46.9238 35.5129 47.0228 35.4399 47.1113 35.3618C47.2051 35.2837 47.3066 35.1899 47.416 35.0806C47.5358 34.9556 47.6634 34.8019 47.7988 34.6196C47.9342 34.4373 48.0671 34.2368 48.1973 34.0181C48.3275 33.7993 48.4499 33.5701 48.5645 33.3306C48.6842 33.091 48.7884 32.854 48.877 32.6196C48.9707 32.3853 49.0436 32.1587 49.0957 31.9399C49.1478 31.7212 49.1738 31.5233 49.1738 31.3462C49.1738 31.242 49.1608 31.1379 49.1348 31.0337C49.1139 30.9243 49.0801 30.8254 49.0332 30.7368C48.9915 30.6483 48.9342 30.5754 48.8613 30.5181C48.7936 30.4608 48.7129 30.4321 48.6191 30.4321C48.4733 30.4321 48.3223 30.4712 48.166 30.5493C48.0098 30.6222 47.8561 30.716 47.7051 30.8306C47.5592 30.9399 47.4186 31.0597 47.2832 31.1899C47.153 31.3149 47.0384 31.4295 46.9395 31.5337C46.6478 31.841 46.3848 32.1457 46.1504 32.4478C45.916 32.7498 45.7025 33.0519 45.5098 33.354C45.3171 33.6509 45.14 33.9478 44.9785 34.2446C44.8171 34.5415 44.666 34.8358 44.5254 35.1274C44.4993 35.367 44.4733 35.6353 44.4473 35.9321C44.4212 36.2238 44.3926 36.5467 44.3613 36.9009C44.3301 37.255 44.3066 37.5858 44.291 37.8931C44.2754 38.2056 44.2598 38.4998 44.2441 38.7759C44.2285 39.0519 44.2103 39.3149 44.1895 39.5649C44.1686 39.8149 44.1348 40.0545 44.0879 40.2837C44.0514 40.3826 44.0124 40.4816 43.9707 40.5806C43.929 40.6847 43.877 40.7785 43.8145 40.8618C43.7572 40.9504 43.6868 41.0207 43.6035 41.0728C43.5254 41.13 43.4264 41.1587 43.3066 41.1587C43.2493 41.1587 43.1842 41.1431 43.1113 41.1118C43.0384 41.0806 42.9681 41.0363 42.9004 40.979C42.8379 40.9269 42.7832 40.867 42.7363 40.7993C42.6947 40.7316 42.6738 40.6587 42.6738 40.5806C42.6738 40.4087 42.6868 40.1951 42.7129 39.9399C42.7389 39.6899 42.7676 39.4373 42.7988 39.1821C42.8353 38.9269 42.8691 38.6951 42.9004 38.4868C42.9368 38.2785 42.9603 38.1326 42.9707 38.0493C43.0436 37.5129 43.1035 36.9347 43.1504 36.3149C43.1973 35.6899 43.2389 35.0103 43.2754 34.2759C43.2858 34.0623 43.2936 33.7472 43.2988 33.3306C43.3092 32.9035 43.3171 32.5363 43.3223 32.229C43.3327 31.9165 43.3457 31.6561 43.3613 31.4478C43.3978 30.9478 43.4759 30.5754 43.5957 30.3306C43.7155 30.0806 43.89 29.9556 44.1191 29.9556C44.2962 29.9556 44.4525 30.0337 44.5879 30.1899C44.7233 30.3514 44.791 30.5181 44.791 30.6899C44.791 30.8722 44.7702 31.0728 44.7285 31.2915C44.6921 31.5103 44.6504 31.7342 44.6035 31.9634C44.5618 32.1925 44.5202 32.4191 44.4785 32.6431C44.4421 32.8618 44.4238 33.0597 44.4238 33.2368C44.4238 33.3879 44.4395 33.4634 44.4707 33.4634C44.8353 32.8071 45.2129 32.2082 45.6035 31.6665C45.9941 31.1248 46.3639 30.6899 46.7129 30.3618C46.8691 30.2212 47.0358 30.0806 47.2129 29.9399C47.39 29.7993 47.5723 29.6717 47.7598 29.5571C47.9473 29.4425 48.1348 29.3514 48.3223 29.2837C48.515 29.2108 48.7025 29.1743 48.8848 29.1743C49.0775 29.1691 49.265 29.2108 49.4473 29.2993C49.6296 29.3826 49.791 29.4946 49.9316 29.6353C50.0723 29.7759 50.1842 29.9347 50.2676 30.1118C50.3509 30.2889 50.3926 30.4634 50.3926 30.6353C50.3926 30.8071 50.3743 31.0076 50.3379 31.2368C50.3066 31.4608 50.2572 31.7004 50.1895 31.9556C50.1217 32.2056 50.041 32.4608 49.9473 32.7212C49.8535 32.9816 49.7493 33.2316 49.6348 33.4712C49.5254 33.7108 49.4056 33.9321 49.2754 34.1353C49.1504 34.3332 49.0202 34.4998 48.8848 34.6353C49.8796 34.2134 50.7806 33.7472 51.5879 33.2368C52.4004 32.7264 53.1478 32.1795 53.8301 31.5962C54.0749 31.3879 54.2728 31.2134 54.4238 31.0728C54.5749 30.9321 54.6947 30.8618 54.7832 30.8618C54.8197 30.8618 54.8483 30.88 54.8691 30.9165C54.89 30.9478 54.9056 30.9894 54.916 31.0415C54.9316 31.0884 54.9421 31.1405 54.9473 31.1978C54.9525 31.2498 54.9551 31.2941 54.9551 31.3306ZM57.7441 31.0337C57.7441 30.9816 57.7233 30.9243 57.6816 30.8618C57.6452 30.7941 57.5957 30.7316 57.5332 30.6743C57.4759 30.6118 57.4108 30.5597 57.3379 30.5181C57.265 30.4764 57.1973 30.4556 57.1348 30.4556C56.9733 30.4556 56.8223 30.4816 56.6816 30.5337C56.5462 30.5858 56.4186 30.6535 56.2988 30.7368C56.179 30.8149 56.0671 30.9061 55.9629 31.0103C55.8639 31.1144 55.7754 31.2186 55.6973 31.3228C55.5098 31.5623 55.3171 31.8566 55.1191 32.2056C54.9264 32.5493 54.7493 32.9113 54.5879 33.2915C54.4316 33.6717 54.3014 34.0467 54.1973 34.4165C54.0983 34.7863 54.0488 35.1144 54.0488 35.4009C54.0488 35.5467 54.1139 35.6717 54.2441 35.7759C54.3743 35.88 54.5488 35.9321 54.7676 35.9321C54.8926 35.9321 55.041 35.8774 55.2129 35.7681C55.39 35.6535 55.5723 35.505 55.7598 35.3228C55.9525 35.1353 56.14 34.9243 56.3223 34.6899C56.5098 34.4556 56.6738 34.2134 56.8145 33.9634C57.0801 33.4946 57.3014 33.0233 57.4785 32.5493C57.6556 32.0701 57.7441 31.5649 57.7441 31.0337ZM64.7363 32.2368C64.7207 32.2837 64.6582 32.3905 64.5488 32.5571C64.4395 32.7186 64.2858 32.9191 64.0879 33.1587C63.89 33.3983 63.6504 33.6639 63.3691 33.9556C63.0931 34.242 62.7832 34.5311 62.4395 34.8228C62.0332 35.1613 61.6712 35.4425 61.3535 35.6665C61.041 35.8853 60.7572 36.0597 60.502 36.1899C60.252 36.3149 60.0254 36.4035 59.8223 36.4556C59.6243 36.5024 59.4395 36.5259 59.2676 36.5259C59.0384 36.5259 58.8301 36.4894 58.6426 36.4165C58.4603 36.3384 58.3014 36.216 58.166 36.0493C58.0306 35.8826 57.916 35.6691 57.8223 35.4087C57.7285 35.1431 57.6556 34.8228 57.6035 34.4478H57.5254C57.3066 34.7811 57.0671 35.1118 56.8066 35.4399C56.5514 35.7629 56.2832 36.0545 56.002 36.3149C55.7259 36.5701 55.4395 36.7785 55.1426 36.9399C54.8509 37.1014 54.5618 37.1821 54.2754 37.1821C54.1243 37.1821 53.9655 37.1561 53.7988 37.104C53.6322 37.0467 53.4785 36.9582 53.3379 36.8384C53.1973 36.7186 53.0801 36.5675 52.9863 36.3853C52.8926 36.1978 52.8457 35.9738 52.8457 35.7134C52.8457 35.4842 52.8743 35.2238 52.9316 34.9321C52.9889 34.6353 53.0671 34.328 53.166 34.0103C53.265 33.6873 53.377 33.3644 53.502 33.0415C53.6322 32.7134 53.7676 32.4035 53.9082 32.1118C54.054 31.8201 54.1999 31.5571 54.3457 31.3228C54.4915 31.0884 54.6322 30.8983 54.7676 30.7524C54.9238 30.5858 55.1061 30.4165 55.3145 30.2446C55.528 30.0728 55.7624 29.9165 56.0176 29.7759C56.2728 29.6353 56.5462 29.5207 56.8379 29.4321C57.1296 29.3384 57.4368 29.2915 57.7598 29.2915C58.0202 29.2915 58.2155 29.3774 58.3457 29.5493C58.4759 29.716 58.5671 29.9712 58.6191 30.3149C58.6243 30.3462 58.6426 30.3826 58.6738 30.4243C58.7103 30.466 58.7467 30.5129 58.7832 30.5649C58.8249 30.617 58.8613 30.6717 58.8926 30.729C58.9238 30.7811 58.9395 30.8358 58.9395 30.8931C58.9395 30.9764 58.9212 31.0806 58.8848 31.2056C58.8483 31.3254 58.8066 31.4634 58.7598 31.6196C58.7181 31.7707 58.679 31.9373 58.6426 32.1196C58.6061 32.2967 58.5879 32.4842 58.5879 32.6821C58.5879 32.953 58.5905 33.242 58.5957 33.5493C58.6009 33.8566 58.6296 34.1405 58.6816 34.4009C58.7389 34.6561 58.8301 34.8696 58.9551 35.0415C59.0853 35.2134 59.2728 35.2993 59.5176 35.2993C59.7676 35.2993 60.1061 35.1821 60.5332 34.9478C60.9603 34.7134 61.4342 34.3853 61.9551 33.9634C62.2884 33.6925 62.6035 33.4217 62.9004 33.1509C63.1973 32.88 63.4629 32.6379 63.6973 32.4243C63.9316 32.2108 64.1322 32.0363 64.2988 31.9009C64.4655 31.7655 64.5853 31.6978 64.6582 31.6978C64.7467 31.6978 64.8014 31.7134 64.8223 31.7446C64.8431 31.7707 64.8535 31.8201 64.8535 31.8931C64.8535 31.9035 64.8483 31.9269 64.8379 31.9634C64.8275 31.9946 64.8171 32.0285 64.8066 32.0649C64.7962 32.1014 64.7832 32.1353 64.7676 32.1665C64.752 32.1978 64.7415 32.2212 64.7363 32.2368ZM73.7207 31.4087C73.7207 31.5024 73.6947 31.6118 73.6426 31.7368C73.5957 31.8566 73.5436 31.9582 73.4863 32.0415C73.3092 32.3071 73.0749 32.6118 72.7832 32.9556C72.4915 33.2941 72.1738 33.6379 71.8301 33.9868C71.4915 34.3306 71.1452 34.6613 70.791 34.979C70.4421 35.2967 70.1191 35.5623 69.8223 35.7759C69.4316 36.0623 69.0592 36.3019 68.7051 36.4946C68.3561 36.6873 68.0176 36.8436 67.6895 36.9634C67.3613 37.078 67.0358 37.1613 66.7129 37.2134C66.3952 37.2603 66.0697 37.2837 65.7363 37.2837C65.3874 37.2837 65.0749 37.2186 64.7988 37.0884C64.5228 36.953 64.2884 36.7707 64.0957 36.5415C63.9082 36.3123 63.765 36.0467 63.666 35.7446C63.5671 35.4373 63.5176 35.1144 63.5176 34.7759C63.5176 34.4217 63.5618 34.0493 63.6504 33.6587C63.7389 33.2681 63.8613 32.8748 64.0176 32.479C64.179 32.0832 64.3717 31.6978 64.5957 31.3228C64.8197 30.9425 65.0671 30.5884 65.3379 30.2603C65.4473 30.13 65.5775 29.992 65.7285 29.8462C65.8848 29.6951 66.0488 29.5571 66.2207 29.4321C66.3978 29.3071 66.5801 29.2056 66.7676 29.1274C66.9603 29.0441 67.1478 29.0024 67.3301 29.0024C67.4551 29.0024 67.5749 29.0415 67.6895 29.1196C67.804 29.1925 67.9108 29.2889 68.0098 29.4087C68.1087 29.5285 68.1999 29.6639 68.2832 29.8149C68.3665 29.9608 68.4368 30.1118 68.4941 30.2681C68.5514 30.4191 68.5957 30.5649 68.627 30.7056C68.6582 30.8462 68.6738 30.966 68.6738 31.0649C68.6738 31.216 68.627 31.4113 68.5332 31.6509C68.4395 31.8905 68.3275 32.0103 68.1973 32.0103C68.0098 32.0103 67.8535 31.8826 67.7285 31.6274C67.6816 31.5285 67.64 31.4139 67.6035 31.2837C67.5723 31.1535 67.5332 31.0259 67.4863 30.9009C67.4447 30.7759 67.3874 30.6613 67.3145 30.5571C67.2415 30.4478 67.14 30.367 67.0098 30.3149C66.8796 30.3462 66.7467 30.4139 66.6113 30.5181C66.4811 30.6222 66.3509 30.7498 66.2207 30.9009C66.0957 31.0519 65.9707 31.2238 65.8457 31.4165C65.7259 31.604 65.6113 31.7993 65.502 32.0024C65.3978 32.1899 65.2962 32.4061 65.1973 32.6509C65.0983 32.8905 65.0098 33.1405 64.9316 33.4009C64.8535 33.6561 64.791 33.9113 64.7441 34.1665C64.6973 34.4217 64.6738 34.6561 64.6738 34.8696C64.6738 35.0207 64.7103 35.1743 64.7832 35.3306C64.8561 35.4816 64.9499 35.6196 65.0645 35.7446C65.1842 35.8696 65.3171 35.9712 65.4629 36.0493C65.6139 36.1274 65.7676 36.1665 65.9238 36.1665C66.4603 36.1665 67.0046 36.0545 67.5566 35.8306C68.1139 35.6066 68.6738 35.2993 69.2363 34.9087C69.804 34.5181 70.377 34.0597 70.9551 33.5337C71.5332 33.0024 72.1113 32.4321 72.6895 31.8228C72.8665 31.6405 73.0254 31.4816 73.166 31.3462C73.3066 31.2056 73.4395 31.1353 73.5645 31.1353C73.6009 31.1353 73.6348 31.1639 73.666 31.2212C73.7025 31.2733 73.7207 31.3358 73.7207 31.4087ZM77.416 33.3149C77.265 33.4139 77.054 33.5129 76.7832 33.6118C76.5176 33.7108 76.2233 33.8019 75.9004 33.8853C75.5775 33.9686 75.2415 34.0389 74.8926 34.0962C74.5436 34.1535 74.2129 34.1925 73.9004 34.2134C73.8796 34.2707 73.8613 34.3696 73.8457 34.5103C73.8301 34.6457 73.8171 34.8071 73.8066 34.9946C73.7962 35.1769 73.7858 35.3722 73.7754 35.5806C73.7702 35.7889 73.765 35.9894 73.7598 36.1821C73.7546 36.3696 73.7493 36.5389 73.7441 36.6899C73.7441 36.841 73.7441 36.9504 73.7441 37.0181C73.7441 37.0962 73.7207 37.1743 73.6738 37.2524C73.6322 37.3358 73.5775 37.4087 73.5098 37.4712C73.4421 37.5337 73.3665 37.5858 73.2832 37.6274C73.1999 37.6691 73.1165 37.6899 73.0332 37.6899C72.9238 37.6899 72.8301 37.6691 72.752 37.6274C72.6738 37.591 72.6061 37.5467 72.5488 37.4946C72.4967 37.4425 72.4577 37.3905 72.4316 37.3384C72.4056 37.2863 72.3926 37.2472 72.3926 37.2212C72.3822 37.1118 72.3848 36.9686 72.4004 36.7915C72.4212 36.6092 72.4473 36.4113 72.4785 36.1978C72.5098 35.9842 72.5436 35.7603 72.5801 35.5259C72.6217 35.2863 72.6582 35.0519 72.6895 34.8228C72.7259 34.5832 72.7546 34.3175 72.7754 34.0259C72.8014 33.729 72.8223 33.4243 72.8379 33.1118C72.8535 32.7993 72.8639 32.4894 72.8691 32.1821C72.8796 31.8696 72.8848 31.5754 72.8848 31.2993C72.89 31.0233 72.8926 30.7759 72.8926 30.5571C72.8926 30.3332 72.8926 30.1535 72.8926 30.0181C72.8926 29.7733 72.9447 29.5649 73.0488 29.3931C73.153 29.2212 73.3275 29.1353 73.5723 29.1353C73.64 29.1353 73.7129 29.1561 73.791 29.1978C73.8743 29.2394 73.9499 29.2915 74.0176 29.354C74.0853 29.4113 74.1426 29.4764 74.1895 29.5493C74.2363 29.617 74.2598 29.6821 74.2598 29.7446C74.2598 30.005 74.2441 30.2785 74.2129 30.5649C74.1868 30.8514 74.1556 31.13 74.1191 31.4009C74.0827 31.6665 74.0488 31.9139 74.0176 32.1431C73.9915 32.367 73.9785 32.5493 73.9785 32.6899C73.9785 32.8358 74.0592 32.9425 74.2207 33.0103C74.3822 33.078 74.5853 33.1118 74.8301 33.1118C75.0228 33.1118 75.2363 33.0962 75.4707 33.0649C75.7051 33.0285 75.9316 32.9816 76.1504 32.9243C76.3691 32.867 76.5697 32.7967 76.752 32.7134C76.9395 32.63 77.0853 32.5363 77.1895 32.4321C77.278 32.3436 77.3587 32.2316 77.4316 32.0962C77.5098 31.9608 77.5645 31.8228 77.5957 31.6821C77.6374 31.5103 77.6712 31.3123 77.6973 31.0884C77.7233 30.8644 77.7572 30.6379 77.7988 30.4087C77.8561 30.0597 77.9707 29.7811 78.1426 29.5728C78.3197 29.3644 78.5254 29.2603 78.7598 29.2603C78.9629 29.2603 79.1191 29.3254 79.2285 29.4556C79.3379 29.5858 79.3926 29.7394 79.3926 29.9165C79.3926 29.9738 79.3691 30.0858 79.3223 30.2524C79.2806 30.4139 79.2259 30.5988 79.1582 30.8071C79.0957 31.0155 79.028 31.2264 78.9551 31.4399C78.8874 31.6535 78.8275 31.8358 78.7754 31.9868C78.7389 32.0962 78.6999 32.2576 78.6582 32.4712C78.6165 32.6795 78.5775 32.9087 78.541 33.1587C78.5098 33.4035 78.4811 33.6483 78.4551 33.8931C78.4342 34.1379 78.4238 34.3462 78.4238 34.5181C78.4238 35.0493 78.4863 35.4269 78.6113 35.6509C78.7415 35.8748 78.9368 35.9868 79.1973 35.9868C79.3848 35.9868 79.5879 35.9504 79.8066 35.8774C80.0306 35.8045 80.278 35.6821 80.5488 35.5103C80.8249 35.3332 81.1296 35.1014 81.4629 34.8149C81.7962 34.5285 82.1738 34.1743 82.5957 33.7524C82.7988 33.5493 82.9967 33.3436 83.1895 33.1353C83.3822 32.9269 83.5618 32.729 83.7285 32.5415C83.9004 32.354 84.054 32.1821 84.1895 32.0259C84.3249 31.8644 84.4368 31.7316 84.5254 31.6274C84.5827 31.5597 84.6452 31.4894 84.7129 31.4165C84.7858 31.3436 84.8535 31.3071 84.916 31.3071C85.0046 31.3071 85.0801 31.3228 85.1426 31.354C85.2103 31.38 85.2441 31.4451 85.2441 31.5493C85.2441 31.6587 85.1868 31.8045 85.0723 31.9868C84.9577 32.1691 84.8171 32.3748 84.6504 32.604C84.5983 32.6769 84.515 32.7837 84.4004 32.9243C84.2858 33.0649 84.1504 33.2264 83.9941 33.4087C83.8431 33.591 83.6764 33.7863 83.4941 33.9946C83.3118 34.1978 83.127 34.3983 82.9395 34.5962C82.7572 34.7941 82.5775 34.9842 82.4004 35.1665C82.2285 35.3436 82.0697 35.4972 81.9238 35.6274C81.3978 36.0962 80.877 36.4712 80.3613 36.7524C79.8509 37.0337 79.3301 37.1743 78.7988 37.1743C78.3301 37.1743 77.9629 36.992 77.6973 36.6274C77.4316 36.2629 77.2988 35.7394 77.2988 35.0571C77.2988 34.9113 77.3014 34.7576 77.3066 34.5962C77.3171 34.4347 77.3275 34.2785 77.3379 34.1274C77.3483 33.9712 77.3587 33.8228 77.3691 33.6821C77.3848 33.5415 77.4004 33.4191 77.416 33.3149ZM90.4551 32.0337C90.4551 32.2004 90.4473 32.3592 90.4316 32.5103C90.416 32.6613 90.3926 32.8071 90.3613 32.9478C90.3301 33.0884 90.2884 33.2316 90.2363 33.3774C90.1842 33.5181 90.1217 33.6639 90.0488 33.8149C89.9759 33.9764 89.8431 34.1691 89.6504 34.3931C89.4577 34.617 89.2259 34.8488 88.9551 35.0884C88.6895 35.328 88.3952 35.5649 88.0723 35.7993C87.7546 36.0337 87.4316 36.2446 87.1035 36.4321C86.7754 36.6196 86.4525 36.7707 86.1348 36.8853C85.8223 36.9998 85.5384 37.0571 85.2832 37.0571C84.9342 37.0571 84.6296 36.9998 84.3691 36.8853C84.1087 36.7655 83.8926 36.6118 83.7207 36.4243C83.5488 36.2316 83.4186 36.0129 83.3301 35.7681C83.2467 35.5233 83.2051 35.2759 83.2051 35.0259C83.2051 34.8592 83.2259 34.6691 83.2676 34.4556C83.3092 34.242 83.3639 34.0207 83.4316 33.7915C83.4993 33.5623 83.5801 33.328 83.6738 33.0884C83.7676 32.8488 83.8665 32.6196 83.9707 32.4009C84.0749 32.1821 84.1816 31.979 84.291 31.7915C84.4004 31.604 84.5072 31.4451 84.6113 31.3149C84.7936 31.0858 85.0124 30.8618 85.2676 30.6431C85.528 30.4243 85.8118 30.2316 86.1191 30.0649C86.4264 29.8931 86.7546 29.755 87.1035 29.6509C87.4577 29.5467 87.8223 29.4946 88.1973 29.4946C88.4785 29.4946 88.7546 29.5649 89.0254 29.7056C89.2962 29.841 89.5358 30.0259 89.7441 30.2603C89.9577 30.4946 90.1296 30.7655 90.2598 31.0728C90.39 31.38 90.4551 31.7004 90.4551 32.0337ZM89.2363 32.2603C89.2363 31.7446 89.0879 31.341 88.791 31.0493C88.4993 30.7576 88.0775 30.6118 87.5254 30.6118C87.3379 30.6118 87.1478 30.6613 86.9551 30.7603C86.7624 30.8592 86.5775 30.9816 86.4004 31.1274C86.2233 31.2733 86.0592 31.4295 85.9082 31.5962C85.7624 31.7576 85.64 31.9035 85.541 32.0337C85.4421 32.1691 85.3327 32.354 85.2129 32.5884C85.0931 32.8175 84.9785 33.0649 84.8691 33.3306C84.765 33.591 84.6764 33.854 84.6035 34.1196C84.5358 34.38 84.502 34.6092 84.502 34.8071C84.502 34.9269 84.5254 35.0493 84.5723 35.1743C84.6191 35.2941 84.6842 35.4035 84.7676 35.5024C84.8561 35.5962 84.9603 35.6743 85.0801 35.7368C85.1999 35.7993 85.3327 35.8306 85.4785 35.8306C85.6348 35.8306 85.8353 35.7837 86.0801 35.6899C86.3301 35.5962 86.5931 35.4686 86.8691 35.3071C87.1504 35.1405 87.4316 34.9451 87.7129 34.7212C87.9941 34.492 88.2467 34.2446 88.4707 33.979C88.6999 33.7134 88.8848 33.4347 89.0254 33.1431C89.166 32.8514 89.2363 32.5571 89.2363 32.2603ZM100.885 34.3071C100.885 34.3436 100.854 34.4087 100.791 34.5024C100.729 34.591 100.663 34.6951 100.596 34.8149C100.372 35.0701 100.132 35.328 99.877 35.5884C99.6217 35.8488 99.3535 36.1014 99.0723 36.3462C98.7962 36.5858 98.5072 36.8123 98.2051 37.0259C97.9082 37.2342 97.6035 37.4165 97.291 37.5728C96.9785 37.729 96.6634 37.8514 96.3457 37.9399C96.0332 38.0285 95.7207 38.0701 95.4082 38.0649C94.9707 38.0649 94.5957 37.9946 94.2832 37.854C93.9707 37.7134 93.7129 37.5129 93.5098 37.2524C93.3066 36.9972 93.1582 36.6873 93.0645 36.3228C92.9655 35.953 92.916 35.5415 92.916 35.0884C92.916 34.7134 92.9447 34.328 93.002 33.9321C93.054 33.5311 93.1426 33.13 93.2676 32.729C93.3978 32.3228 93.5671 31.9243 93.7754 31.5337C93.9889 31.1379 94.2493 30.7576 94.5566 30.3931C94.8535 30.0493 95.1582 29.7967 95.4707 29.6353C95.7832 29.4738 96.0879 29.3931 96.3848 29.3931C96.5827 29.3931 96.7598 29.4243 96.916 29.4868C97.0775 29.5441 97.2129 29.6248 97.3223 29.729C97.4368 29.8332 97.5254 29.9582 97.5879 30.104C97.6504 30.2446 97.6842 30.4009 97.6895 30.5728C97.6999 30.8175 97.6738 31.0545 97.6113 31.2837C97.554 31.5129 97.4603 31.742 97.3301 31.9712C97.1999 32.1951 97.0332 32.4269 96.8301 32.6665C96.627 32.9009 96.3874 33.1457 96.1113 33.4009C96.0072 33.4998 95.877 33.6222 95.7207 33.7681C95.5645 33.9087 95.3952 34.0571 95.2129 34.2134C95.0358 34.3696 94.8509 34.5259 94.6582 34.6821C94.4655 34.8384 94.2806 34.979 94.1035 35.104C94.1035 35.3175 94.1296 35.5337 94.1816 35.7524C94.2389 35.966 94.3249 36.1613 94.4395 36.3384C94.5592 36.5103 94.7129 36.6535 94.9004 36.7681C95.0879 36.8774 95.3171 36.9321 95.5879 36.9321C95.9629 36.9321 96.3405 36.867 96.7207 36.7368C97.1009 36.6014 97.4785 36.4165 97.8535 36.1821C98.2285 35.9478 98.6009 35.6691 98.9707 35.3462C99.3405 35.0233 99.7077 34.6717 100.072 34.2915C100.093 34.2707 100.122 34.2472 100.158 34.2212C100.195 34.1899 100.236 34.1613 100.283 34.1353C100.33 34.104 100.377 34.078 100.424 34.0571C100.476 34.0363 100.525 34.0259 100.572 34.0259C100.588 34.0259 100.611 34.0363 100.643 34.0571C100.679 34.078 100.715 34.104 100.752 34.1353C100.788 34.1613 100.82 34.1899 100.846 34.2212C100.872 34.2524 100.885 34.2811 100.885 34.3071ZM96.541 30.9712C96.5306 30.8097 96.4889 30.6847 96.416 30.5962C96.3431 30.5076 96.2467 30.4634 96.127 30.4634C95.9186 30.4634 95.679 30.6014 95.4082 30.8774C95.1426 31.1483 94.8952 31.5441 94.666 32.0649C94.5618 32.3045 94.4551 32.5884 94.3457 32.9165C94.2363 33.2446 94.1634 33.591 94.127 33.9556C94.3978 33.7524 94.6452 33.5389 94.8691 33.3149C95.0983 33.091 95.3066 32.8853 95.4941 32.6978C95.6035 32.5884 95.7207 32.4582 95.8457 32.3071C95.9707 32.1509 96.0853 31.992 96.1895 31.8306C96.2988 31.6691 96.3848 31.5129 96.4473 31.3618C96.515 31.2108 96.5462 31.0806 96.541 30.9712ZM104.236 26.1509C104.236 26.2655 104.197 26.4972 104.119 26.8462C104.077 27.0233 104.036 27.2082 103.994 27.4009C103.952 27.5884 103.906 27.7837 103.854 27.9868C103.692 28.7108 103.533 29.4217 103.377 30.1196C103.221 30.8123 103.098 31.505 103.01 32.1978C102.999 32.3228 102.994 32.4373 102.994 32.5415C102.994 32.6457 102.989 32.7446 102.979 32.8384C102.973 32.9321 102.958 33.0233 102.932 33.1118C102.911 33.1951 102.877 33.2785 102.83 33.3618C102.768 33.3618 102.689 33.3566 102.596 33.3462C102.507 33.3358 102.403 33.3201 102.283 33.2993C102.049 33.2524 101.895 33.2004 101.822 33.1431C101.817 33.1014 101.812 33.0467 101.807 32.979C101.807 32.9061 101.807 32.8254 101.807 32.7368C101.801 32.4712 101.817 32.1873 101.854 31.8853C101.895 31.5832 101.947 31.2759 102.01 30.9634C102.072 30.6457 102.14 30.3254 102.213 30.0024C102.286 29.6795 102.351 29.3618 102.408 29.0493C102.471 28.7316 102.52 28.4243 102.557 28.1274C102.598 27.8254 102.617 27.5389 102.611 27.2681C102.611 27.1431 102.635 26.9556 102.682 26.7056C102.729 26.4504 102.778 26.2759 102.83 26.1821C102.867 26.1248 102.913 26.0649 102.971 26.0024C103.033 25.9399 103.109 25.8774 103.197 25.8149C103.374 25.6847 103.52 25.6196 103.635 25.6196C103.765 25.6196 103.898 25.6743 104.033 25.7837C104.169 25.8879 104.236 26.0103 104.236 26.1509ZM102.83 35.6821C102.83 35.7707 102.794 36.005 102.721 36.3853C102.7 36.5311 102.572 36.6873 102.338 36.854C102.114 37.0155 101.926 37.0962 101.775 37.0962C101.39 37.0962 101.197 36.8436 101.197 36.3384C101.197 36.1405 101.291 35.9035 101.479 35.6274C101.671 35.3566 101.856 35.2212 102.033 35.2212C102.09 35.216 102.166 35.229 102.26 35.2603C102.354 35.2915 102.442 35.3332 102.525 35.3853C102.614 35.4321 102.687 35.4842 102.744 35.5415C102.807 35.5988 102.835 35.6457 102.83 35.6821Z" fill="#E1DECE"/>
</svg>
